<svg width="80" height="15" viewBox="0 0 80 15" fill="none" xmlns="http://www.w3.org/2000/svg">
<path d="M12.0762 14H10.2217L8.93848 10.3525H3.27832L1.99512 14H0.228516L4.99219 0.913086H7.3125L12.0762 14ZM8.40234 8.8584L6.1084 2.43359L3.80566 8.8584H8.40234ZM22.5703 9.0166C22.5703 9.83691 22.4531 10.5752 22.2188 11.2314C21.9902 11.8877 21.6797 12.4385 21.2871 12.8838C20.8711 13.3467 20.4141 13.6953 19.916 13.9297C19.418 14.1582 18.8701 14.2725 18.2725 14.2725C17.7158 14.2725 17.2295 14.2051 16.8135 14.0703C16.3975 13.9414 15.9873 13.7656 15.583 13.543L15.4775 14H13.9307V0.324219H15.583V5.21094C16.0459 4.83008 16.5381 4.51953 17.0596 4.2793C17.5811 4.0332 18.167 3.91016 18.8174 3.91016C19.9775 3.91016 20.8916 4.35547 21.5596 5.24609C22.2334 6.13672 22.5703 7.39355 22.5703 9.0166ZM20.8652 9.06055C20.8652 7.88867 20.6719 7.00098 20.2852 6.39746C19.8984 5.78809 19.2744 5.4834 18.4131 5.4834C17.9326 5.4834 17.4463 5.58887 16.9541 5.7998C16.4619 6.00488 16.0049 6.27148 15.583 6.59961V12.2246C16.0518 12.4355 16.4531 12.582 16.7871 12.6641C17.127 12.7461 17.5107 12.7871 17.9385 12.7871C18.8525 12.7871 19.5674 12.4883 20.083 11.8906C20.6045 11.2871 20.8652 10.3438 20.8652 9.06055ZM33.5127 9.0957C33.5127 10.6953 33.1025 11.958 32.2822 12.8838C31.4619 13.8096 30.3633 14.2725 28.9863 14.2725C27.5977 14.2725 26.4932 13.8096 25.6729 12.8838C24.8584 11.958 24.4512 10.6953 24.4512 9.0957C24.4512 7.49609 24.8584 6.2334 25.6729 5.30762C26.4932 4.37598 27.5977 3.91016 28.9863 3.91016C30.3633 3.91016 31.4619 4.37598 32.2822 5.30762C33.1025 6.2334 33.5127 7.49609 33.5127 9.0957ZM31.8076 9.0957C31.8076 7.82422 31.5586 6.88086 31.0605 6.26562C30.5625 5.64453 29.8711 5.33398 28.9863 5.33398C28.0898 5.33398 27.3926 5.64453 26.8945 6.26562C26.4023 6.88086 26.1562 7.82422 26.1562 9.0957C26.1562 10.3262 26.4053 11.2607 26.9033 11.8994C27.4014 12.5322 28.0957 12.8486 28.9863 12.8486C29.8652 12.8486 30.5537 12.5352 31.0518 11.9082C31.5557 11.2754 31.8076 10.3379 31.8076 9.0957ZM44.2178 14H42.5654V12.9102C42.0088 13.3496 41.4756 13.6865 40.9658 13.9209C40.4561 14.1553 39.8936 14.2725 39.2783 14.2725C38.2471 14.2725 37.4443 13.959 36.8701 13.332C36.2959 12.6992 36.0088 11.7734 36.0088 10.5547V4.18262H37.6611V9.77246C37.6611 10.2705 37.6846 10.6982 37.7314 11.0557C37.7783 11.4072 37.8779 11.709 38.0303 11.9609C38.1885 12.2188 38.3936 12.4062 38.6455 12.5234C38.8975 12.6406 39.2637 12.6992 39.7441 12.6992C40.1719 12.6992 40.6377 12.5879 41.1416 12.3652C41.6514 12.1426 42.126 11.8584 42.5654 11.5127V4.18262H44.2178V14ZM52.5674 13.9121C52.2568 13.9941 51.917 14.0615 51.5479 14.1143C51.1846 14.167 50.8594 14.1934 50.5723 14.1934C49.5703 14.1934 48.8086 13.9238 48.2871 13.3848C47.7656 12.8457 47.5049 11.9814 47.5049 10.792V5.57129H46.3887V4.18262H47.5049V1.36133H49.1572V4.18262H52.5674V5.57129H49.1572V10.0449C49.1572 10.5605 49.1689 10.9648 49.1924 11.2578C49.2158 11.5449 49.2979 11.8145 49.4385 12.0664C49.5674 12.3008 49.7432 12.4736 49.9658 12.585C50.1943 12.6904 50.54 12.7432 51.0029 12.7432C51.2725 12.7432 51.5537 12.7051 51.8467 12.6289C52.1396 12.5469 52.3506 12.4795 52.4795 12.4268H52.5674V13.9121ZM69.0381 14H67.3857V12.9102C66.8291 13.3496 66.2959 13.6865 65.7861 13.9209C65.2764 14.1553 64.7139 14.2725 64.0986 14.2725C63.0674 14.2725 62.2646 13.959 61.6904 13.332C61.1162 12.6992 60.8291 11.7734 60.8291 10.5547V4.18262H62.4814V9.77246C62.4814 10.2705 62.5049 10.6982 62.5518 11.0557C62.5986 11.4072 62.6982 11.709 62.8506 11.9609C63.0088 12.2188 63.2139 12.4062 63.4658 12.5234C63.7178 12.6406 64.084 12.6992 64.5645 12.6992C64.9922 12.6992 65.458 12.5879 65.9619 12.3652C66.4717 12.1426 66.9463 11.8584 67.3857 11.5127V4.18262H69.0381V14ZM79.3037 11.1699C79.3037 12.0664 78.9316 12.8018 78.1875 13.376C77.4492 13.9502 76.4385 14.2373 75.1553 14.2373C74.4287 14.2373 73.7607 14.1523 73.1514 13.9824C72.5479 13.8066 72.041 13.6162 71.6309 13.4111V11.5566H71.7188C72.2402 11.9492 72.8203 12.2627 73.459 12.4971C74.0977 12.7256 74.71 12.8398 75.2959 12.8398C76.0225 12.8398 76.5908 12.7227 77.001 12.4883C77.4111 12.2539 77.6162 11.8848 77.6162 11.3809C77.6162 10.9941 77.5049 10.7012 77.2822 10.502C77.0596 10.3027 76.6318 10.1328 75.999 9.99219C75.7646 9.93945 75.457 9.87793 75.0762 9.80762C74.7012 9.7373 74.3584 9.66113 74.0479 9.5791C73.1865 9.35059 72.5742 9.0166 72.2109 8.57715C71.8535 8.13184 71.6748 7.58691 71.6748 6.94238C71.6748 6.53809 71.7568 6.15723 71.9209 5.7998C72.0908 5.44238 72.3457 5.12305 72.6855 4.8418C73.0137 4.56641 73.4297 4.34961 73.9336 4.19141C74.4434 4.02734 75.0117 3.94531 75.6387 3.94531C76.2246 3.94531 76.8164 4.01855 77.4141 4.16504C78.0176 4.30566 78.5186 4.47852 78.917 4.68359V6.4502H78.8291C78.4072 6.13965 77.8945 5.87891 77.291 5.66797C76.6875 5.45117 76.0957 5.34277 75.5156 5.34277C74.9121 5.34277 74.4023 5.45996 73.9863 5.69434C73.5703 5.92285 73.3623 6.26562 73.3623 6.72266C73.3623 7.12695 73.4883 7.43164 73.7402 7.63672C73.9863 7.8418 74.3848 8.00879 74.9355 8.1377C75.2402 8.20801 75.5801 8.27832 75.9551 8.34863C76.3359 8.41895 76.6523 8.4834 76.9043 8.54199C77.6719 8.71777 78.2637 9.01953 78.6797 9.44727C79.0957 9.88086 79.3037 10.4551 79.3037 11.1699Z" fill="black"/>
</svg>
