<svg width="163" height="9" viewBox="0 0 163 9" fill="none" xmlns="http://www.w3.org/2000/svg">
<path d="M9.43848 0.729492L7.54883 8H6.45996L4.93164 1.96484L3.4375 8H2.37305L0.449219 0.729492H1.44043L2.96875 6.77441L4.47266 0.729492H5.4541L6.97266 6.83301L8.49121 0.729492H9.43848ZM15.3564 8H14.4385V4.89453C14.4385 4.64388 14.4238 4.40951 14.3945 4.19141C14.3652 3.97005 14.3115 3.79753 14.2334 3.67383C14.152 3.53711 14.0348 3.4362 13.8818 3.37109C13.7288 3.30273 13.5303 3.26855 13.2861 3.26855C13.0355 3.26855 12.7734 3.3304 12.5 3.4541C12.2266 3.5778 11.9645 3.73568 11.7139 3.92773V8H10.7959V0.402344H11.7139V3.15137C12.0003 2.91374 12.2965 2.72819 12.6025 2.59473C12.9085 2.46126 13.2227 2.39453 13.5449 2.39453C14.1341 2.39453 14.5833 2.57194 14.8926 2.92676C15.2018 3.28158 15.3564 3.79264 15.3564 4.45996V8ZM21.7725 5.27539C21.7725 6.16406 21.5446 6.86556 21.0889 7.37988C20.6331 7.89421 20.0228 8.15137 19.2578 8.15137C18.4863 8.15137 17.8727 7.89421 17.417 7.37988C16.9645 6.86556 16.7383 6.16406 16.7383 5.27539C16.7383 4.38672 16.9645 3.68522 17.417 3.1709C17.8727 2.65332 18.4863 2.39453 19.2578 2.39453C20.0228 2.39453 20.6331 2.65332 21.0889 3.1709C21.5446 3.68522 21.7725 4.38672 21.7725 5.27539ZM20.8252 5.27539C20.8252 4.56901 20.6868 4.04492 20.4102 3.70312C20.1335 3.35807 19.7493 3.18555 19.2578 3.18555C18.7598 3.18555 18.3724 3.35807 18.0957 3.70312C17.8223 4.04492 17.6855 4.56901 17.6855 5.27539C17.6855 5.95898 17.8239 6.47819 18.1006 6.83301C18.3773 7.18457 18.763 7.36035 19.2578 7.36035C19.7461 7.36035 20.1286 7.1862 20.4053 6.83789C20.6852 6.48633 20.8252 5.96549 20.8252 5.27539ZM30.9521 8H30.0391V7.41895C29.9577 7.47428 29.847 7.55241 29.707 7.65332C29.5703 7.75098 29.4368 7.8291 29.3066 7.8877C29.1536 7.96257 28.9779 8.02441 28.7793 8.07324C28.5807 8.12533 28.348 8.15137 28.0811 8.15137C27.5895 8.15137 27.1729 7.98861 26.8311 7.66309C26.4893 7.33757 26.3184 6.92253 26.3184 6.41797C26.3184 6.00456 26.4062 5.6709 26.582 5.41699C26.7611 5.15983 27.015 4.95801 27.3438 4.81152C27.6758 4.66504 28.0745 4.56576 28.54 4.51367C29.0055 4.46159 29.5052 4.42253 30.0391 4.39648V4.25488C30.0391 4.04655 30.0016 3.87402 29.9268 3.7373C29.8551 3.60059 29.751 3.49316 29.6143 3.41504C29.484 3.34017 29.3278 3.28971 29.1455 3.26367C28.9632 3.23763 28.7728 3.22461 28.5742 3.22461C28.3333 3.22461 28.0648 3.25716 27.7686 3.32227C27.4723 3.38411 27.1663 3.47526 26.8506 3.5957H26.8018V2.66309C26.9808 2.61426 27.2396 2.56055 27.5781 2.50195C27.9167 2.44336 28.2503 2.41406 28.5791 2.41406C28.9632 2.41406 29.2969 2.44661 29.5801 2.51172C29.8665 2.57357 30.1139 2.68099 30.3223 2.83398C30.5273 2.98372 30.6836 3.17741 30.791 3.41504C30.8984 3.65267 30.9521 3.94727 30.9521 4.29883V8ZM30.0391 6.65723V5.13867C29.7591 5.15495 29.4287 5.17936 29.0479 5.21191C28.6702 5.24447 28.3708 5.29167 28.1494 5.35352C27.8857 5.42839 27.6725 5.54557 27.5098 5.70508C27.347 5.86133 27.2656 6.0778 27.2656 6.35449C27.2656 6.66699 27.36 6.90299 27.5488 7.0625C27.7376 7.21875 28.0257 7.29688 28.4131 7.29688C28.7354 7.29688 29.0299 7.23503 29.2969 7.11133C29.5638 6.98438 29.8112 6.83301 30.0391 6.65723ZM36.123 3.54688H36.0742C35.9375 3.51432 35.804 3.49154 35.6738 3.47852C35.5469 3.46224 35.3955 3.4541 35.2197 3.4541C34.9365 3.4541 34.6631 3.51758 34.3994 3.64453C34.1357 3.76823 33.8818 3.92936 33.6377 4.12793V8H32.7197V2.5459H33.6377V3.35156C34.0023 3.05859 34.3229 2.85189 34.5996 2.73145C34.8796 2.60775 35.1644 2.5459 35.4541 2.5459C35.6136 2.5459 35.7292 2.55078 35.8008 2.56055C35.8724 2.56706 35.9798 2.58171 36.123 2.60449V3.54688ZM41.5527 5.36816H37.5342C37.5342 5.70345 37.5846 5.99642 37.6855 6.24707C37.7865 6.49447 37.9248 6.69792 38.1006 6.85742C38.2699 7.01367 38.4701 7.13086 38.7012 7.20898C38.9355 7.28711 39.1927 7.32617 39.4727 7.32617C39.8438 7.32617 40.2165 7.25293 40.5908 7.10645C40.9684 6.95671 41.237 6.81022 41.3965 6.66699H41.4453V7.66797C41.1361 7.79818 40.8203 7.90723 40.498 7.99512C40.1758 8.08301 39.8372 8.12695 39.4824 8.12695C38.5775 8.12695 37.8711 7.88281 37.3633 7.39453C36.8555 6.90299 36.6016 6.20638 36.6016 5.30469C36.6016 4.41276 36.8441 3.70475 37.3291 3.18066C37.8174 2.65658 38.4587 2.39453 39.2529 2.39453C39.9886 2.39453 40.555 2.60938 40.9521 3.03906C41.3525 3.46875 41.5527 4.0791 41.5527 4.87012V5.36816ZM40.6592 4.66504C40.6559 4.18327 40.5339 3.81055 40.293 3.54688C40.0553 3.2832 39.6924 3.15137 39.2041 3.15137C38.7126 3.15137 38.3203 3.29622 38.0273 3.58594C37.7376 3.87565 37.5732 4.23535 37.5342 4.66504H40.6592ZM52.2656 8H51.2354L50.5225 5.97363H47.3779L46.665 8H45.6836L48.3301 0.729492H49.6191L52.2656 8ZM50.2246 5.14355L48.9502 1.57422L47.6709 5.14355H50.2246ZM54.2236 8H53.3057V0.402344H54.2236V8ZM60.6055 5.36816H56.5869C56.5869 5.70345 56.6374 5.99642 56.7383 6.24707C56.8392 6.49447 56.9775 6.69792 57.1533 6.85742C57.3226 7.01367 57.5228 7.13086 57.7539 7.20898C57.9883 7.28711 58.2454 7.32617 58.5254 7.32617C58.8965 7.32617 59.2692 7.25293 59.6436 7.10645C60.0212 6.95671 60.2897 6.81022 60.4492 6.66699H60.498V7.66797C60.1888 7.79818 59.873 7.90723 59.5508 7.99512C59.2285 8.08301 58.89 8.12695 58.5352 8.12695C57.6302 8.12695 56.9238 7.88281 56.416 7.39453C55.9082 6.90299 55.6543 6.20638 55.6543 5.30469C55.6543 4.41276 55.8968 3.70475 56.3818 3.18066C56.8701 2.65658 57.5114 2.39453 58.3057 2.39453C59.0413 2.39453 59.6077 2.60938 60.0049 3.03906C60.4053 3.46875 60.6055 4.0791 60.6055 4.87012V5.36816ZM59.7119 4.66504C59.7087 4.18327 59.5866 3.81055 59.3457 3.54688C59.1081 3.2832 58.7451 3.15137 58.2568 3.15137C57.7653 3.15137 57.373 3.29622 57.0801 3.58594C56.7904 3.87565 56.626 4.23535 56.5869 4.66504H59.7119ZM65.8936 6.42773C65.8936 6.92578 65.6868 7.33431 65.2734 7.65332C64.8633 7.97233 64.3018 8.13184 63.5889 8.13184C63.1852 8.13184 62.8141 8.08464 62.4756 7.99023C62.1403 7.89258 61.8587 7.78678 61.6309 7.67285V6.64258H61.6797C61.9694 6.86068 62.2917 7.03483 62.6465 7.16504C63.0013 7.29199 63.3415 7.35547 63.667 7.35547C64.0706 7.35547 64.3864 7.29036 64.6143 7.16016C64.8421 7.02995 64.9561 6.82487 64.9561 6.54492C64.9561 6.33008 64.8942 6.16732 64.7705 6.05664C64.6468 5.94596 64.4092 5.85156 64.0576 5.77344C63.9274 5.74414 63.7565 5.70996 63.5449 5.6709C63.3366 5.63184 63.1462 5.58952 62.9736 5.54395C62.4951 5.41699 62.1549 5.23145 61.9531 4.9873C61.7546 4.73991 61.6553 4.43717 61.6553 4.0791C61.6553 3.85449 61.7008 3.6429 61.792 3.44434C61.8864 3.24577 62.028 3.06836 62.2168 2.91211C62.3991 2.75911 62.6302 2.63867 62.9102 2.55078C63.1934 2.45964 63.5091 2.41406 63.8574 2.41406C64.1829 2.41406 64.5117 2.45475 64.8438 2.53613C65.179 2.61426 65.4574 2.71029 65.6787 2.82422V3.80566H65.6299C65.3955 3.63314 65.1107 3.48828 64.7754 3.37109C64.4401 3.25065 64.1113 3.19043 63.7891 3.19043C63.4538 3.19043 63.1706 3.25553 62.9395 3.38574C62.7083 3.5127 62.5928 3.70312 62.5928 3.95703C62.5928 4.18164 62.6628 4.35091 62.8027 4.46484C62.9395 4.57878 63.1608 4.67155 63.4668 4.74316C63.6361 4.78223 63.8249 4.82129 64.0332 4.86035C64.2448 4.89941 64.4206 4.93522 64.5605 4.96777C64.987 5.06543 65.3158 5.23307 65.5469 5.4707C65.778 5.71159 65.8936 6.0306 65.8936 6.42773ZM71.1084 6.42773C71.1084 6.92578 70.9017 7.33431 70.4883 7.65332C70.0781 7.97233 69.5166 8.13184 68.8037 8.13184C68.4001 8.13184 68.029 8.08464 67.6904 7.99023C67.3551 7.89258 67.0736 7.78678 66.8457 7.67285V6.64258H66.8945C67.1842 6.86068 67.5065 7.03483 67.8613 7.16504C68.2161 7.29199 68.5563 7.35547 68.8818 7.35547C69.2855 7.35547 69.6012 7.29036 69.8291 7.16016C70.057 7.02995 70.1709 6.82487 70.1709 6.54492C70.1709 6.33008 70.109 6.16732 69.9854 6.05664C69.8617 5.94596 69.624 5.85156 69.2725 5.77344C69.1423 5.74414 68.9714 5.70996 68.7598 5.6709C68.5514 5.63184 68.361 5.58952 68.1885 5.54395C67.71 5.41699 67.3698 5.23145 67.168 4.9873C66.9694 4.73991 66.8701 4.43717 66.8701 4.0791C66.8701 3.85449 66.9157 3.6429 67.0068 3.44434C67.1012 3.24577 67.2428 3.06836 67.4316 2.91211C67.6139 2.75911 67.8451 2.63867 68.125 2.55078C68.4082 2.45964 68.724 2.41406 69.0723 2.41406C69.3978 2.41406 69.7266 2.45475 70.0586 2.53613C70.3939 2.61426 70.6722 2.71029 70.8936 2.82422V3.80566H70.8447C70.6104 3.63314 70.3255 3.48828 69.9902 3.37109C69.6549 3.25065 69.3262 3.19043 69.0039 3.19043C68.6686 3.19043 68.3854 3.25553 68.1543 3.38574C67.9232 3.5127 67.8076 3.70312 67.8076 3.95703C67.8076 4.18164 67.8776 4.35091 68.0176 4.46484C68.1543 4.57878 68.3757 4.67155 68.6816 4.74316C68.8509 4.78223 69.0397 4.82129 69.248 4.86035C69.4596 4.89941 69.6354 4.93522 69.7754 4.96777C70.2018 5.06543 70.5306 5.23307 70.7617 5.4707C70.9928 5.71159 71.1084 6.0306 71.1084 6.42773ZM76.665 8H75.752V7.41895C75.6706 7.47428 75.5599 7.55241 75.4199 7.65332C75.2832 7.75098 75.1497 7.8291 75.0195 7.8877C74.8665 7.96257 74.6908 8.02441 74.4922 8.07324C74.2936 8.12533 74.0609 8.15137 73.7939 8.15137C73.3024 8.15137 72.8857 7.98861 72.5439 7.66309C72.2021 7.33757 72.0312 6.92253 72.0312 6.41797C72.0312 6.00456 72.1191 5.6709 72.2949 5.41699C72.474 5.15983 72.7279 4.95801 73.0566 4.81152C73.3887 4.66504 73.7874 4.56576 74.2529 4.51367C74.7184 4.46159 75.2181 4.42253 75.752 4.39648V4.25488C75.752 4.04655 75.7145 3.87402 75.6396 3.7373C75.568 3.60059 75.4639 3.49316 75.3271 3.41504C75.1969 3.34017 75.0407 3.28971 74.8584 3.26367C74.6761 3.23763 74.4857 3.22461 74.2871 3.22461C74.0462 3.22461 73.7777 3.25716 73.4814 3.32227C73.1852 3.38411 72.8792 3.47526 72.5635 3.5957H72.5146V2.66309C72.6937 2.61426 72.9525 2.56055 73.291 2.50195C73.6296 2.44336 73.9632 2.41406 74.292 2.41406C74.6761 2.41406 75.0098 2.44661 75.293 2.51172C75.5794 2.57357 75.8268 2.68099 76.0352 2.83398C76.2402 2.98372 76.3965 3.17741 76.5039 3.41504C76.6113 3.65267 76.665 3.94727 76.665 4.29883V8ZM75.752 6.65723V5.13867C75.472 5.15495 75.1416 5.17936 74.7607 5.21191C74.3831 5.24447 74.0837 5.29167 73.8623 5.35352C73.5986 5.42839 73.3854 5.54557 73.2227 5.70508C73.0599 5.86133 72.9785 6.0778 72.9785 6.35449C72.9785 6.66699 73.0729 6.90299 73.2617 7.0625C73.4505 7.21875 73.7386 7.29688 74.126 7.29688C74.4482 7.29688 74.7428 7.23503 75.0098 7.11133C75.2767 6.98438 75.5241 6.83301 75.752 6.65723ZM82.9932 8H82.0752V4.89453C82.0752 4.64388 82.0605 4.40951 82.0312 4.19141C82.002 3.97005 81.9482 3.79753 81.8701 3.67383C81.7887 3.53711 81.6715 3.4362 81.5186 3.37109C81.3656 3.30273 81.167 3.26855 80.9229 3.26855C80.6722 3.26855 80.4102 3.3304 80.1367 3.4541C79.8633 3.5778 79.6012 3.73568 79.3506 3.92773V8H78.4326V2.5459H79.3506V3.15137C79.637 2.91374 79.9333 2.72819 80.2393 2.59473C80.5452 2.46126 80.8594 2.39453 81.1816 2.39453C81.7708 2.39453 82.2201 2.57194 82.5293 2.92676C82.8385 3.28158 82.9932 3.79264 82.9932 4.45996V8ZM89.1846 8H88.2666V7.42871C88.0029 7.65658 87.7279 7.83398 87.4414 7.96094C87.1549 8.08789 86.8441 8.15137 86.5088 8.15137C85.8577 8.15137 85.3402 7.90072 84.9561 7.39941C84.5752 6.89811 84.3848 6.20312 84.3848 5.31445C84.3848 4.85221 84.4499 4.44043 84.5801 4.0791C84.7135 3.71777 84.8926 3.41016 85.1172 3.15625C85.3385 2.90885 85.5957 2.72005 85.8887 2.58984C86.1849 2.45964 86.4909 2.39453 86.8066 2.39453C87.0931 2.39453 87.347 2.42546 87.5684 2.4873C87.7897 2.5459 88.0225 2.63867 88.2666 2.76562V0.402344H89.1846V8ZM88.2666 6.65723V3.52734C88.0192 3.41667 87.7979 3.34017 87.6025 3.29785C87.4072 3.25553 87.194 3.23438 86.9629 3.23438C86.4486 3.23438 86.0482 3.41341 85.7617 3.77148C85.4753 4.12956 85.332 4.63737 85.332 5.29492C85.332 5.94271 85.4427 6.43587 85.6641 6.77441C85.8854 7.1097 86.2402 7.27734 86.7285 7.27734C86.9889 7.27734 87.2526 7.22038 87.5195 7.10645C87.7865 6.98926 88.0355 6.83952 88.2666 6.65723ZM94.3945 3.54688H94.3457C94.209 3.51432 94.0755 3.49154 93.9453 3.47852C93.8184 3.46224 93.667 3.4541 93.4912 3.4541C93.208 3.4541 92.9346 3.51758 92.6709 3.64453C92.4072 3.76823 92.1533 3.92936 91.9092 4.12793V8H90.9912V2.5459H91.9092V3.35156C92.2738 3.05859 92.5944 2.85189 92.8711 2.73145C93.151 2.60775 93.4359 2.5459 93.7256 2.5459C93.8851 2.5459 94.0007 2.55078 94.0723 2.56055C94.1439 2.56706 94.2513 2.58171 94.3945 2.60449V3.54688ZM99.4971 8H98.584V7.41895C98.5026 7.47428 98.3919 7.55241 98.252 7.65332C98.1152 7.75098 97.9818 7.8291 97.8516 7.8877C97.6986 7.96257 97.5228 8.02441 97.3242 8.07324C97.1257 8.12533 96.8929 8.15137 96.626 8.15137C96.1344 8.15137 95.7178 7.98861 95.376 7.66309C95.0342 7.33757 94.8633 6.92253 94.8633 6.41797C94.8633 6.00456 94.9512 5.6709 95.127 5.41699C95.306 5.15983 95.5599 4.95801 95.8887 4.81152C96.2207 4.66504 96.6195 4.56576 97.085 4.51367C97.5505 4.46159 98.0501 4.42253 98.584 4.39648V4.25488C98.584 4.04655 98.5465 3.87402 98.4717 3.7373C98.4001 3.60059 98.2959 3.49316 98.1592 3.41504C98.029 3.34017 97.8727 3.28971 97.6904 3.26367C97.5081 3.23763 97.3177 3.22461 97.1191 3.22461C96.8783 3.22461 96.6097 3.25716 96.3135 3.32227C96.0173 3.38411 95.7113 3.47526 95.3955 3.5957H95.3467V2.66309C95.5257 2.61426 95.7845 2.56055 96.123 2.50195C96.4616 2.44336 96.7952 2.41406 97.124 2.41406C97.5081 2.41406 97.8418 2.44661 98.125 2.51172C98.4115 2.57357 98.6589 2.68099 98.8672 2.83398C99.0723 2.98372 99.2285 3.17741 99.3359 3.41504C99.4434 3.65267 99.4971 3.94727 99.4971 4.29883V8ZM98.584 6.65723V5.13867C98.304 5.15495 97.9736 5.17936 97.5928 5.21191C97.2152 5.24447 96.9157 5.29167 96.6943 5.35352C96.4307 5.42839 96.2174 5.54557 96.0547 5.70508C95.8919 5.86133 95.8105 6.0778 95.8105 6.35449C95.8105 6.66699 95.9049 6.90299 96.0938 7.0625C96.2826 7.21875 96.5706 7.29688 96.958 7.29688C97.2803 7.29688 97.5749 7.23503 97.8418 7.11133C98.1087 6.98438 98.3561 6.83301 98.584 6.65723ZM109.019 8H108.105V7.41895C108.024 7.47428 107.913 7.55241 107.773 7.65332C107.637 7.75098 107.503 7.8291 107.373 7.8877C107.22 7.96257 107.044 8.02441 106.846 8.07324C106.647 8.12533 106.414 8.15137 106.147 8.15137C105.656 8.15137 105.239 7.98861 104.897 7.66309C104.556 7.33757 104.385 6.92253 104.385 6.41797C104.385 6.00456 104.473 5.6709 104.648 5.41699C104.827 5.15983 105.081 4.95801 105.41 4.81152C105.742 4.66504 106.141 4.56576 106.606 4.51367C107.072 4.46159 107.572 4.42253 108.105 4.39648V4.25488C108.105 4.04655 108.068 3.87402 107.993 3.7373C107.922 3.60059 107.817 3.49316 107.681 3.41504C107.55 3.34017 107.394 3.28971 107.212 3.26367C107.03 3.23763 106.839 3.22461 106.641 3.22461C106.4 3.22461 106.131 3.25716 105.835 3.32227C105.539 3.38411 105.233 3.47526 104.917 3.5957H104.868V2.66309C105.047 2.61426 105.306 2.56055 105.645 2.50195C105.983 2.44336 106.317 2.41406 106.646 2.41406C107.03 2.41406 107.363 2.44661 107.646 2.51172C107.933 2.57357 108.18 2.68099 108.389 2.83398C108.594 2.98372 108.75 3.17741 108.857 3.41504C108.965 3.65267 109.019 3.94727 109.019 4.29883V8ZM108.105 6.65723V5.13867C107.826 5.15495 107.495 5.17936 107.114 5.21191C106.737 5.24447 106.437 5.29167 106.216 5.35352C105.952 5.42839 105.739 5.54557 105.576 5.70508C105.413 5.86133 105.332 6.0778 105.332 6.35449C105.332 6.66699 105.426 6.90299 105.615 7.0625C105.804 7.21875 106.092 7.29688 106.479 7.29688C106.802 7.29688 107.096 7.23503 107.363 7.11133C107.63 6.98438 107.878 6.83301 108.105 6.65723ZM115.347 8H114.429V4.89453C114.429 4.64388 114.414 4.40951 114.385 4.19141C114.355 3.97005 114.302 3.79753 114.224 3.67383C114.142 3.53711 114.025 3.4362 113.872 3.37109C113.719 3.30273 113.521 3.26855 113.276 3.26855C113.026 3.26855 112.764 3.3304 112.49 3.4541C112.217 3.5778 111.955 3.73568 111.704 3.92773V8H110.786V2.5459H111.704V3.15137C111.991 2.91374 112.287 2.72819 112.593 2.59473C112.899 2.46126 113.213 2.39453 113.535 2.39453C114.124 2.39453 114.574 2.57194 114.883 2.92676C115.192 3.28158 115.347 3.79264 115.347 4.45996V8ZM121.538 8H120.62V7.42871C120.356 7.65658 120.081 7.83398 119.795 7.96094C119.508 8.08789 119.198 8.15137 118.862 8.15137C118.211 8.15137 117.694 7.90072 117.31 7.39941C116.929 6.89811 116.738 6.20312 116.738 5.31445C116.738 4.85221 116.803 4.44043 116.934 4.0791C117.067 3.71777 117.246 3.41016 117.471 3.15625C117.692 2.90885 117.949 2.72005 118.242 2.58984C118.538 2.45964 118.844 2.39453 119.16 2.39453C119.447 2.39453 119.701 2.42546 119.922 2.4873C120.143 2.5459 120.376 2.63867 120.62 2.76562V0.402344H121.538V8ZM120.62 6.65723V3.52734C120.373 3.41667 120.151 3.34017 119.956 3.29785C119.761 3.25553 119.548 3.23438 119.316 3.23438C118.802 3.23438 118.402 3.41341 118.115 3.77148C117.829 4.12956 117.686 4.63737 117.686 5.29492C117.686 5.94271 117.796 6.43587 118.018 6.77441C118.239 7.1097 118.594 7.27734 119.082 7.27734C119.342 7.27734 119.606 7.22038 119.873 7.10645C120.14 6.98926 120.389 6.83952 120.62 6.65723ZM131.724 8H126.934V0.729492H131.724V1.58887H127.9V3.58105H131.724V4.44043H127.9V7.14062H131.724V8ZM141.147 8H140.229V4.89453C140.229 4.66016 140.218 4.43392 140.195 4.21582C140.176 3.99772 140.132 3.82357 140.063 3.69336C139.989 3.55339 139.881 3.44759 139.741 3.37598C139.601 3.30436 139.399 3.26855 139.136 3.26855C138.879 3.26855 138.621 3.33366 138.364 3.46387C138.107 3.59082 137.85 3.75358 137.593 3.95215C137.603 4.02702 137.611 4.11491 137.617 4.21582C137.624 4.31348 137.627 4.41113 137.627 4.50879V8H136.709V4.89453C136.709 4.65365 136.698 4.42578 136.675 4.21094C136.655 3.99284 136.611 3.81868 136.543 3.68848C136.468 3.5485 136.361 3.44434 136.221 3.37598C136.081 3.30436 135.879 3.26855 135.615 3.26855C135.365 3.26855 135.112 3.3304 134.858 3.4541C134.608 3.5778 134.357 3.73568 134.106 3.92773V8H133.188V2.5459H134.106V3.15137C134.393 2.91374 134.678 2.72819 134.961 2.59473C135.247 2.46126 135.552 2.39453 135.874 2.39453C136.245 2.39453 136.559 2.47266 136.816 2.62891C137.077 2.78516 137.271 3.00163 137.397 3.27832C137.769 2.96582 138.107 2.74121 138.413 2.60449C138.719 2.46452 139.046 2.39453 139.395 2.39453C139.993 2.39453 140.435 2.57682 140.718 2.94141C141.004 3.30273 141.147 3.80892 141.147 4.45996V8ZM150.874 8H149.956V4.89453C149.956 4.66016 149.945 4.43392 149.922 4.21582C149.902 3.99772 149.858 3.82357 149.79 3.69336C149.715 3.55339 149.608 3.44759 149.468 3.37598C149.328 3.30436 149.126 3.26855 148.862 3.26855C148.605 3.26855 148.348 3.33366 148.091 3.46387C147.834 3.59082 147.576 3.75358 147.319 3.95215C147.329 4.02702 147.337 4.11491 147.344 4.21582C147.35 4.31348 147.354 4.41113 147.354 4.50879V8H146.436V4.89453C146.436 4.65365 146.424 4.42578 146.401 4.21094C146.382 3.99284 146.338 3.81868 146.27 3.68848C146.195 3.5485 146.087 3.44434 145.947 3.37598C145.807 3.30436 145.605 3.26855 145.342 3.26855C145.091 3.26855 144.839 3.3304 144.585 3.4541C144.334 3.5778 144.084 3.73568 143.833 3.92773V8H142.915V2.5459H143.833V3.15137C144.119 2.91374 144.404 2.72819 144.688 2.59473C144.974 2.46126 145.278 2.39453 145.601 2.39453C145.972 2.39453 146.286 2.47266 146.543 2.62891C146.803 2.78516 146.997 3.00163 147.124 3.27832C147.495 2.96582 147.834 2.74121 148.14 2.60449C148.446 2.46452 148.773 2.39453 149.121 2.39453C149.72 2.39453 150.161 2.57682 150.444 2.94141C150.731 3.30273 150.874 3.80892 150.874 4.45996V8ZM156.88 8H155.967V7.41895C155.885 7.47428 155.775 7.55241 155.635 7.65332C155.498 7.75098 155.365 7.8291 155.234 7.8877C155.081 7.96257 154.906 8.02441 154.707 8.07324C154.508 8.12533 154.276 8.15137 154.009 8.15137C153.517 8.15137 153.101 7.98861 152.759 7.66309C152.417 7.33757 152.246 6.92253 152.246 6.41797C152.246 6.00456 152.334 5.6709 152.51 5.41699C152.689 5.15983 152.943 4.95801 153.271 4.81152C153.604 4.66504 154.002 4.56576 154.468 4.51367C154.933 4.46159 155.433 4.42253 155.967 4.39648V4.25488C155.967 4.04655 155.929 3.87402 155.854 3.7373C155.783 3.60059 155.679 3.49316 155.542 3.41504C155.412 3.34017 155.256 3.28971 155.073 3.26367C154.891 3.23763 154.701 3.22461 154.502 3.22461C154.261 3.22461 153.993 3.25716 153.696 3.32227C153.4 3.38411 153.094 3.47526 152.778 3.5957H152.729V2.66309C152.909 2.61426 153.167 2.56055 153.506 2.50195C153.844 2.44336 154.178 2.41406 154.507 2.41406C154.891 2.41406 155.225 2.44661 155.508 2.51172C155.794 2.57357 156.042 2.68099 156.25 2.83398C156.455 2.98372 156.611 3.17741 156.719 3.41504C156.826 3.65267 156.88 3.94727 156.88 4.29883V8ZM155.967 6.65723V5.13867C155.687 5.15495 155.356 5.17936 154.976 5.21191C154.598 5.24447 154.299 5.29167 154.077 5.35352C153.813 5.42839 153.6 5.54557 153.438 5.70508C153.275 5.86133 153.193 6.0778 153.193 6.35449C153.193 6.66699 153.288 6.90299 153.477 7.0625C153.665 7.21875 153.953 7.29688 154.341 7.29688C154.663 7.29688 154.958 7.23503 155.225 7.11133C155.492 6.98438 155.739 6.83301 155.967 6.65723ZM162.651 2.43848C162.651 2.75749 162.594 3.04232 162.48 3.29297C162.367 3.54036 162.217 3.76009 162.031 3.95215C161.849 4.1377 161.639 4.31185 161.401 4.47461C161.164 4.63737 160.911 4.79525 160.645 4.94824V6.04688H159.771V4.55762C159.982 4.43717 160.21 4.30534 160.454 4.16211C160.701 4.01888 160.903 3.87402 161.06 3.72754C161.248 3.55827 161.395 3.38411 161.499 3.20508C161.603 3.02279 161.655 2.79167 161.655 2.51172C161.655 2.14388 161.53 1.87044 161.279 1.69141C161.032 1.50911 160.711 1.41797 160.317 1.41797C159.966 1.41797 159.632 1.47331 159.316 1.58398C159.004 1.69466 158.757 1.80697 158.574 1.9209H158.525V0.924805C158.753 0.836914 159.041 0.758789 159.39 0.69043C159.741 0.618815 160.073 0.583008 160.386 0.583008C161.086 0.583008 161.637 0.753906 162.041 1.0957C162.448 1.43424 162.651 1.88184 162.651 2.43848ZM160.723 8H159.727V6.96973H160.723V8Z" fill="black"/>
</svg>
