<svg width="77" height="15" viewBox="0 0 77 15" fill="none" xmlns="http://www.w3.org/2000/svg">
<path d="M10.8652 13.0508C10.543 13.1914 10.25 13.3232 9.98633 13.4463C9.72852 13.5693 9.38867 13.6982 8.9668 13.833C8.60938 13.9443 8.21973 14.0381 7.79785 14.1143C7.38184 14.1963 6.92188 14.2373 6.41797 14.2373C5.46875 14.2373 4.60449 14.1055 3.8252 13.8418C3.05176 13.5723 2.37793 13.1533 1.80371 12.585C1.24121 12.0283 0.801758 11.3223 0.485352 10.4668C0.168945 9.60547 0.0107422 8.60645 0.0107422 7.46973C0.0107422 6.3916 0.163086 5.42773 0.467773 4.57812C0.772461 3.72852 1.21191 3.01074 1.78613 2.4248C2.34277 1.85645 3.01367 1.42285 3.79883 1.12402C4.58984 0.825195 5.46582 0.675781 6.42676 0.675781C7.12988 0.675781 7.83008 0.760742 8.52734 0.930664C9.23047 1.10059 10.0098 1.39941 10.8652 1.82715V3.89258H10.7334C10.0127 3.28906 9.29785 2.84961 8.58887 2.57422C7.87988 2.29883 7.12109 2.16113 6.3125 2.16113C5.65039 2.16113 5.05273 2.26953 4.51953 2.48633C3.99219 2.69727 3.52051 3.02832 3.10449 3.47949C2.7002 3.91895 2.38379 4.47559 2.15527 5.14941C1.93262 5.81738 1.82129 6.59082 1.82129 7.46973C1.82129 8.38965 1.94434 9.18066 2.19043 9.84277C2.44238 10.5049 2.76465 11.0439 3.15723 11.46C3.56738 11.8936 4.04492 12.2158 4.58984 12.4268C5.14062 12.6318 5.7207 12.7344 6.33008 12.7344C7.16797 12.7344 7.95312 12.5908 8.68555 12.3037C9.41797 12.0166 10.1035 11.5859 10.7422 11.0117H10.8652V13.0508ZM21.5615 9.0957C21.5615 10.6953 21.1514 11.958 20.3311 12.8838C19.5107 13.8096 18.4121 14.2725 17.0352 14.2725C15.6465 14.2725 14.542 13.8096 13.7217 12.8838C12.9072 11.958 12.5 10.6953 12.5 9.0957C12.5 7.49609 12.9072 6.2334 13.7217 5.30762C14.542 4.37598 15.6465 3.91016 17.0352 3.91016C18.4121 3.91016 19.5107 4.37598 20.3311 5.30762C21.1514 6.2334 21.5615 7.49609 21.5615 9.0957ZM19.8564 9.0957C19.8564 7.82422 19.6074 6.88086 19.1094 6.26562C18.6113 5.64453 17.9199 5.33398 17.0352 5.33398C16.1387 5.33398 15.4414 5.64453 14.9434 6.26562C14.4512 6.88086 14.2051 7.82422 14.2051 9.0957C14.2051 10.3262 14.4541 11.2607 14.9521 11.8994C15.4502 12.5322 16.1445 12.8486 17.0352 12.8486C17.9141 12.8486 18.6025 12.5352 19.1006 11.9082C19.6045 11.2754 19.8564 10.3379 19.8564 9.0957ZM32.3369 14H30.6846V8.41016C30.6846 7.95898 30.6582 7.53711 30.6055 7.14453C30.5527 6.74609 30.4561 6.43555 30.3154 6.21289C30.1689 5.9668 29.958 5.78516 29.6826 5.66797C29.4072 5.54492 29.0498 5.4834 28.6104 5.4834C28.1592 5.4834 27.6875 5.59473 27.1953 5.81738C26.7031 6.04004 26.2314 6.32422 25.7803 6.66992V14H24.1279V4.18262H25.7803V5.27246C26.2959 4.84473 26.8291 4.51074 27.3799 4.27051C27.9307 4.03027 28.4961 3.91016 29.0762 3.91016C30.1367 3.91016 30.9453 4.22949 31.502 4.86816C32.0586 5.50684 32.3369 6.42676 32.3369 7.62793V14ZM40.6162 13.9121C40.3057 13.9941 39.9658 14.0615 39.5967 14.1143C39.2334 14.167 38.9082 14.1934 38.6211 14.1934C37.6191 14.1934 36.8574 13.9238 36.3359 13.3848C35.8145 12.8457 35.5537 11.9814 35.5537 10.792V5.57129H34.4375V4.18262H35.5537V1.36133H37.2061V4.18262H40.6162V5.57129H37.2061V10.0449C37.2061 10.5605 37.2178 10.9648 37.2412 11.2578C37.2646 11.5449 37.3467 11.8145 37.4873 12.0664C37.6162 12.3008 37.792 12.4736 38.0146 12.585C38.2432 12.6904 38.5889 12.7432 39.0518 12.7432C39.3213 12.7432 39.6025 12.7051 39.8955 12.6289C40.1885 12.5469 40.3994 12.4795 40.5283 12.4268H40.6162V13.9121ZM50.249 14H48.6055V12.9541C48.459 13.0537 48.2598 13.1943 48.0078 13.376C47.7617 13.5518 47.5215 13.6924 47.2871 13.7979C47.0117 13.9326 46.6953 14.0439 46.3379 14.1318C45.9805 14.2256 45.5615 14.2725 45.0811 14.2725C44.1963 14.2725 43.4463 13.9795 42.8311 13.3936C42.2158 12.8076 41.9082 12.0605 41.9082 11.1523C41.9082 10.4082 42.0664 9.80762 42.3828 9.35059C42.7051 8.8877 43.1621 8.52441 43.7539 8.26074C44.3516 7.99707 45.0693 7.81836 45.9072 7.72461C46.7451 7.63086 47.6445 7.56055 48.6055 7.51367V7.25879C48.6055 6.88379 48.5381 6.57324 48.4033 6.32715C48.2744 6.08105 48.0869 5.8877 47.8408 5.74707C47.6064 5.6123 47.3252 5.52148 46.9971 5.47461C46.6689 5.42773 46.3262 5.4043 45.9688 5.4043C45.5352 5.4043 45.0518 5.46289 44.5186 5.58008C43.9854 5.69141 43.4346 5.85547 42.8662 6.07227H42.7783V4.39355C43.1006 4.30566 43.5664 4.20898 44.1758 4.10352C44.7852 3.99805 45.3857 3.94531 45.9775 3.94531C46.6689 3.94531 47.2695 4.00391 47.7793 4.12109C48.2949 4.23242 48.7402 4.42578 49.1152 4.70117C49.4844 4.9707 49.7656 5.31934 49.959 5.74707C50.1523 6.1748 50.249 6.70508 50.249 7.33789V14ZM48.6055 11.583V8.84961C48.1016 8.87891 47.5068 8.92285 46.8213 8.98145C46.1416 9.04004 45.6025 9.125 45.2041 9.23633C44.7295 9.37109 44.3457 9.58203 44.0527 9.86914C43.7598 10.1504 43.6133 10.54 43.6133 11.0381C43.6133 11.6006 43.7832 12.0254 44.123 12.3125C44.4629 12.5938 44.9814 12.7344 45.6787 12.7344C46.2588 12.7344 46.7891 12.623 47.2695 12.4004C47.75 12.1719 48.1953 11.8994 48.6055 11.583ZM60.6904 13.3848C60.1396 13.6484 59.6152 13.8535 59.1172 14C58.625 14.1465 58.1006 14.2197 57.5439 14.2197C56.835 14.2197 56.1846 14.1172 55.5928 13.9121C55.001 13.7012 54.4941 13.3848 54.0723 12.9629C53.6445 12.541 53.3135 12.0078 53.0791 11.3633C52.8447 10.7188 52.7275 9.96582 52.7275 9.10449C52.7275 7.49902 53.167 6.23926 54.0459 5.3252C54.9307 4.41113 56.0967 3.9541 57.5439 3.9541C58.1064 3.9541 58.6572 4.0332 59.1963 4.19141C59.7412 4.34961 60.2393 4.54297 60.6904 4.77148V6.6084H60.6025C60.0986 6.21582 59.5771 5.91406 59.0381 5.70312C58.5049 5.49219 57.9834 5.38672 57.4736 5.38672C56.5361 5.38672 55.7949 5.70312 55.25 6.33594C54.7109 6.96289 54.4414 7.88574 54.4414 9.10449C54.4414 10.2881 54.7051 11.1992 55.2324 11.8379C55.7656 12.4707 56.5127 12.7871 57.4736 12.7871C57.8076 12.7871 58.1475 12.7432 58.4932 12.6553C58.8389 12.5674 59.1494 12.4531 59.4248 12.3125C59.665 12.1895 59.8906 12.0605 60.1016 11.9258C60.3125 11.7852 60.4795 11.665 60.6025 11.5654H60.6904V13.3848ZM67.915 13.9121C67.6045 13.9941 67.2646 14.0615 66.8955 14.1143C66.5322 14.167 66.207 14.1934 65.9199 14.1934C64.918 14.1934 64.1562 13.9238 63.6348 13.3848C63.1133 12.8457 62.8525 11.9814 62.8525 10.792V5.57129H61.7363V4.18262H62.8525V1.36133H64.5049V4.18262H67.915V5.57129H64.5049V10.0449C64.5049 10.5605 64.5166 10.9648 64.54 11.2578C64.5635 11.5449 64.6455 11.8145 64.7861 12.0664C64.915 12.3008 65.0908 12.4736 65.3135 12.585C65.542 12.6904 65.8877 12.7432 66.3506 12.7432C66.6201 12.7432 66.9014 12.7051 67.1943 12.6289C67.4873 12.5469 67.6982 12.4795 67.8271 12.4268H67.915V13.9121ZM76.9326 11.1699C76.9326 12.0664 76.5605 12.8018 75.8164 13.376C75.0781 13.9502 74.0674 14.2373 72.7842 14.2373C72.0576 14.2373 71.3896 14.1523 70.7803 13.9824C70.1768 13.8066 69.6699 13.6162 69.2598 13.4111V11.5566H69.3477C69.8691 11.9492 70.4492 12.2627 71.0879 12.4971C71.7266 12.7256 72.3389 12.8398 72.9248 12.8398C73.6514 12.8398 74.2197 12.7227 74.6299 12.4883C75.04 12.2539 75.2451 11.8848 75.2451 11.3809C75.2451 10.9941 75.1338 10.7012 74.9111 10.502C74.6885 10.3027 74.2607 10.1328 73.6279 9.99219C73.3936 9.93945 73.0859 9.87793 72.7051 9.80762C72.3301 9.7373 71.9873 9.66113 71.6768 9.5791C70.8154 9.35059 70.2031 9.0166 69.8398 8.57715C69.4824 8.13184 69.3037 7.58691 69.3037 6.94238C69.3037 6.53809 69.3857 6.15723 69.5498 5.7998C69.7197 5.44238 69.9746 5.12305 70.3145 4.8418C70.6426 4.56641 71.0586 4.34961 71.5625 4.19141C72.0723 4.02734 72.6406 3.94531 73.2676 3.94531C73.8535 3.94531 74.4453 4.01855 75.043 4.16504C75.6465 4.30566 76.1475 4.47852 76.5459 4.68359V6.4502H76.458C76.0361 6.13965 75.5234 5.87891 74.9199 5.66797C74.3164 5.45117 73.7246 5.34277 73.1445 5.34277C72.541 5.34277 72.0312 5.45996 71.6152 5.69434C71.1992 5.92285 70.9912 6.26562 70.9912 6.72266C70.9912 7.12695 71.1172 7.43164 71.3691 7.63672C71.6152 7.8418 72.0137 8.00879 72.5645 8.1377C72.8691 8.20801 73.209 8.27832 73.584 8.34863C73.9648 8.41895 74.2812 8.4834 74.5332 8.54199C75.3008 8.71777 75.8926 9.01953 76.3086 9.44727C76.7246 9.88086 76.9326 10.4551 76.9326 11.1699Z" fill="black"/>
</svg>
