<svg width="154" height="11" viewBox="0 0 154 11" fill="none" xmlns="http://www.w3.org/2000/svg">
<path d="M6.5918 7.47266C6.41276 7.55078 6.25 7.62402 6.10352 7.69238C5.96029 7.76074 5.77148 7.83236 5.53711 7.90723C5.33854 7.96908 5.12207 8.02116 4.8877 8.06348C4.65658 8.10905 4.40104 8.13184 4.12109 8.13184C3.59375 8.13184 3.11361 8.05859 2.68066 7.91211C2.25098 7.76237 1.87663 7.52962 1.55762 7.21387C1.24512 6.90462 1.00098 6.51237 0.825195 6.03711C0.649414 5.55859 0.561523 5.00358 0.561523 4.37207C0.561523 3.77311 0.646159 3.23763 0.81543 2.76562C0.984701 2.29362 1.22884 1.89486 1.54785 1.56934C1.8571 1.25358 2.22982 1.0127 2.66602 0.84668C3.10547 0.680664 3.59212 0.597656 4.12598 0.597656C4.5166 0.597656 4.9056 0.644857 5.29297 0.739258C5.68359 0.833659 6.11654 0.999674 6.5918 1.2373V2.38477H6.51855C6.11816 2.04948 5.72103 1.80534 5.32715 1.65234C4.93327 1.49935 4.51172 1.42285 4.0625 1.42285C3.69466 1.42285 3.36263 1.48307 3.06641 1.60352C2.77344 1.7207 2.51139 1.90462 2.28027 2.15527C2.05566 2.39941 1.87988 2.70866 1.75293 3.08301C1.62923 3.4541 1.56738 3.88379 1.56738 4.37207C1.56738 4.88314 1.63574 5.32259 1.77246 5.69043C1.91243 6.05827 2.09147 6.35775 2.30957 6.58887C2.53743 6.82975 2.80273 7.00879 3.10547 7.12598C3.41146 7.23991 3.73372 7.29688 4.07227 7.29688C4.53776 7.29688 4.97396 7.21712 5.38086 7.05762C5.78776 6.89811 6.16862 6.65885 6.52344 6.33984H6.5918V7.47266ZM12.5342 5.27539C12.5342 6.16406 12.3063 6.86556 11.8506 7.37988C11.3949 7.89421 10.7845 8.15137 10.0195 8.15137C9.24805 8.15137 8.63444 7.89421 8.17871 7.37988C7.72624 6.86556 7.5 6.16406 7.5 5.27539C7.5 4.38672 7.72624 3.68522 8.17871 3.1709C8.63444 2.65332 9.24805 2.39453 10.0195 2.39453C10.7845 2.39453 11.3949 2.65332 11.8506 3.1709C12.3063 3.68522 12.5342 4.38672 12.5342 5.27539ZM11.5869 5.27539C11.5869 4.56901 11.4486 4.04492 11.1719 3.70312C10.8952 3.35807 10.5111 3.18555 10.0195 3.18555C9.52148 3.18555 9.13411 3.35807 8.85742 3.70312C8.58398 4.04492 8.44727 4.56901 8.44727 5.27539C8.44727 5.95898 8.58561 6.47819 8.8623 6.83301C9.139 7.18457 9.52474 7.36035 10.0195 7.36035C10.5078 7.36035 10.8903 7.1862 11.167 6.83789C11.4469 6.48633 11.5869 5.96549 11.5869 5.27539ZM18.5205 8H17.6025V4.89453C17.6025 4.64388 17.5879 4.40951 17.5586 4.19141C17.5293 3.97005 17.4756 3.79753 17.3975 3.67383C17.3161 3.53711 17.1989 3.4362 17.0459 3.37109C16.8929 3.30273 16.6943 3.26855 16.4502 3.26855C16.1995 3.26855 15.9375 3.3304 15.6641 3.4541C15.3906 3.5778 15.1286 3.73568 14.8779 3.92773V8H13.96V2.5459H14.8779V3.15137C15.1644 2.91374 15.4606 2.72819 15.7666 2.59473C16.0726 2.46126 16.3867 2.39453 16.709 2.39453C17.2982 2.39453 17.7474 2.57194 18.0566 2.92676C18.3659 3.28158 18.5205 3.79264 18.5205 4.45996V8ZM23.1201 7.95117C22.9476 7.99674 22.7588 8.03418 22.5537 8.06348C22.3519 8.09277 22.1712 8.10742 22.0117 8.10742C21.4551 8.10742 21.0319 7.95768 20.7422 7.6582C20.4525 7.35872 20.3076 6.87858 20.3076 6.21777V3.31738H19.6875V2.5459H20.3076V0.978516H21.2256V2.5459H23.1201V3.31738H21.2256V5.80273C21.2256 6.08919 21.2321 6.3138 21.2451 6.47656C21.2581 6.63607 21.3037 6.78581 21.3818 6.92578C21.4535 7.05599 21.5511 7.15202 21.6748 7.21387C21.8018 7.27246 21.9938 7.30176 22.251 7.30176C22.4007 7.30176 22.557 7.2806 22.7197 7.23828C22.8825 7.19271 22.9997 7.15527 23.0713 7.12598H23.1201V7.95117ZM28.4717 8H27.5586V7.41895C27.4772 7.47428 27.3665 7.55241 27.2266 7.65332C27.0898 7.75098 26.9564 7.8291 26.8262 7.8877C26.6732 7.96257 26.4974 8.02441 26.2988 8.07324C26.1003 8.12533 25.8675 8.15137 25.6006 8.15137C25.109 8.15137 24.6924 7.98861 24.3506 7.66309C24.0088 7.33757 23.8379 6.92253 23.8379 6.41797C23.8379 6.00456 23.9258 5.6709 24.1016 5.41699C24.2806 5.15983 24.5345 4.95801 24.8633 4.81152C25.1953 4.66504 25.5941 4.56576 26.0596 4.51367C26.5251 4.46159 27.0247 4.42253 27.5586 4.39648V4.25488C27.5586 4.04655 27.5212 3.87402 27.4463 3.7373C27.3747 3.60059 27.2705 3.49316 27.1338 3.41504C27.0036 3.34017 26.8473 3.28971 26.665 3.26367C26.4827 3.23763 26.2923 3.22461 26.0938 3.22461C25.8529 3.22461 25.5843 3.25716 25.2881 3.32227C24.9919 3.38411 24.6859 3.47526 24.3701 3.5957H24.3213V2.66309C24.5003 2.61426 24.7591 2.56055 25.0977 2.50195C25.4362 2.44336 25.7699 2.41406 26.0986 2.41406C26.4827 2.41406 26.8164 2.44661 27.0996 2.51172C27.3861 2.57357 27.6335 2.68099 27.8418 2.83398C28.0469 2.98372 28.2031 3.17741 28.3105 3.41504C28.418 3.65267 28.4717 3.94727 28.4717 4.29883V8ZM27.5586 6.65723V5.13867C27.2786 5.15495 26.9482 5.17936 26.5674 5.21191C26.1898 5.24447 25.8903 5.29167 25.6689 5.35352C25.4053 5.42839 25.1921 5.54557 25.0293 5.70508C24.8665 5.86133 24.7852 6.0778 24.7852 6.35449C24.7852 6.66699 24.8796 6.90299 25.0684 7.0625C25.2572 7.21875 25.5452 7.29688 25.9326 7.29688C26.2549 7.29688 26.5495 7.23503 26.8164 7.11133C27.0833 6.98438 27.3307 6.83301 27.5586 6.65723ZM34.2725 7.6582C33.9665 7.80469 33.6751 7.91862 33.3984 8C33.125 8.08138 32.8337 8.12207 32.5244 8.12207C32.1305 8.12207 31.7692 8.0651 31.4404 7.95117C31.1117 7.83398 30.8301 7.6582 30.5957 7.42383C30.3581 7.18945 30.1742 6.89323 30.0439 6.53516C29.9137 6.17708 29.8486 5.75879 29.8486 5.28027C29.8486 4.38835 30.0928 3.68848 30.5811 3.18066C31.0726 2.67285 31.7204 2.41895 32.5244 2.41895C32.8369 2.41895 33.1429 2.46289 33.4424 2.55078C33.7451 2.63867 34.0218 2.74609 34.2725 2.87305V3.89355H34.2236C33.9437 3.67546 33.654 3.50781 33.3545 3.39062C33.0583 3.27344 32.7686 3.21484 32.4854 3.21484C31.9645 3.21484 31.5527 3.39062 31.25 3.74219C30.9505 4.09049 30.8008 4.60319 30.8008 5.28027C30.8008 5.93783 30.9473 6.44401 31.2402 6.79883C31.5365 7.15039 31.9515 7.32617 32.4854 7.32617C32.6709 7.32617 32.8597 7.30176 33.0518 7.25293C33.2438 7.2041 33.4163 7.14062 33.5693 7.0625C33.7028 6.99414 33.8281 6.92253 33.9453 6.84766C34.0625 6.76953 34.1553 6.7028 34.2236 6.64746H34.2725V7.6582ZM38.2861 7.95117C38.1136 7.99674 37.9248 8.03418 37.7197 8.06348C37.5179 8.09277 37.3372 8.10742 37.1777 8.10742C36.6211 8.10742 36.1979 7.95768 35.9082 7.6582C35.6185 7.35872 35.4736 6.87858 35.4736 6.21777V3.31738H34.8535V2.5459H35.4736V0.978516H36.3916V2.5459H38.2861V3.31738H36.3916V5.80273C36.3916 6.08919 36.3981 6.3138 36.4111 6.47656C36.4242 6.63607 36.4697 6.78581 36.5479 6.92578C36.6195 7.05599 36.7171 7.15202 36.8408 7.21387C36.9678 7.27246 37.1598 7.30176 37.417 7.30176C37.5667 7.30176 37.723 7.2806 37.8857 7.23828C38.0485 7.19271 38.1657 7.15527 38.2373 7.12598H38.2861V7.95117ZM47.4365 8H46.5186V7.39453C46.2093 7.63867 45.9131 7.82585 45.6299 7.95605C45.3467 8.08626 45.0342 8.15137 44.6924 8.15137C44.1195 8.15137 43.6735 7.97721 43.3545 7.62891C43.0355 7.27734 42.876 6.76302 42.876 6.08594V2.5459H43.7939V5.65137C43.7939 5.92806 43.807 6.16569 43.833 6.36426C43.859 6.55957 43.9144 6.72721 43.999 6.86719C44.0869 7.01042 44.2008 7.11458 44.3408 7.17969C44.4808 7.24479 44.6842 7.27734 44.9512 7.27734C45.1888 7.27734 45.4476 7.21549 45.7275 7.0918C46.0107 6.9681 46.2744 6.81022 46.5186 6.61816V2.5459H47.4365V8ZM53.1396 6.42773C53.1396 6.92578 52.9329 7.33431 52.5195 7.65332C52.1094 7.97233 51.5479 8.13184 50.835 8.13184C50.4313 8.13184 50.0602 8.08464 49.7217 7.99023C49.3864 7.89258 49.1048 7.78678 48.877 7.67285V6.64258H48.9258C49.2155 6.86068 49.5378 7.03483 49.8926 7.16504C50.2474 7.29199 50.5876 7.35547 50.9131 7.35547C51.3167 7.35547 51.6325 7.29036 51.8604 7.16016C52.0882 7.02995 52.2021 6.82487 52.2021 6.54492C52.2021 6.33008 52.1403 6.16732 52.0166 6.05664C51.8929 5.94596 51.6553 5.85156 51.3037 5.77344C51.1735 5.74414 51.0026 5.70996 50.791 5.6709C50.5827 5.63184 50.3923 5.58952 50.2197 5.54395C49.7412 5.41699 49.401 5.23145 49.1992 4.9873C49.0007 4.73991 48.9014 4.43717 48.9014 4.0791C48.9014 3.85449 48.9469 3.6429 49.0381 3.44434C49.1325 3.24577 49.2741 3.06836 49.4629 2.91211C49.6452 2.75911 49.8763 2.63867 50.1562 2.55078C50.4395 2.45964 50.7552 2.41406 51.1035 2.41406C51.429 2.41406 51.7578 2.45475 52.0898 2.53613C52.4251 2.61426 52.7035 2.71029 52.9248 2.82422V3.80566H52.876C52.6416 3.63314 52.3568 3.48828 52.0215 3.37109C51.6862 3.25065 51.3574 3.19043 51.0352 3.19043C50.6999 3.19043 50.4167 3.25553 50.1855 3.38574C49.9544 3.5127 49.8389 3.70312 49.8389 3.95703C49.8389 4.18164 49.9089 4.35091 50.0488 4.46484C50.1855 4.57878 50.4069 4.67155 50.7129 4.74316C50.8822 4.78223 51.071 4.82129 51.2793 4.86035C51.4909 4.89941 51.6667 4.93522 51.8066 4.96777C52.2331 5.06543 52.5618 5.23307 52.793 5.4707C53.0241 5.71159 53.1396 6.0306 53.1396 6.42773ZM62.2119 8H61.2988V7.41895C61.2174 7.47428 61.1068 7.55241 60.9668 7.65332C60.8301 7.75098 60.6966 7.8291 60.5664 7.8877C60.4134 7.96257 60.2376 8.02441 60.0391 8.07324C59.8405 8.12533 59.6077 8.15137 59.3408 8.15137C58.8493 8.15137 58.4326 7.98861 58.0908 7.66309C57.749 7.33757 57.5781 6.92253 57.5781 6.41797C57.5781 6.00456 57.666 5.6709 57.8418 5.41699C58.0208 5.15983 58.2747 4.95801 58.6035 4.81152C58.9355 4.66504 59.3343 4.56576 59.7998 4.51367C60.2653 4.46159 60.765 4.42253 61.2988 4.39648V4.25488C61.2988 4.04655 61.2614 3.87402 61.1865 3.7373C61.1149 3.60059 61.0107 3.49316 60.874 3.41504C60.7438 3.34017 60.5876 3.28971 60.4053 3.26367C60.223 3.23763 60.0326 3.22461 59.834 3.22461C59.5931 3.22461 59.3245 3.25716 59.0283 3.32227C58.7321 3.38411 58.4261 3.47526 58.1104 3.5957H58.0615V2.66309C58.2406 2.61426 58.4993 2.56055 58.8379 2.50195C59.1764 2.44336 59.5101 2.41406 59.8389 2.41406C60.223 2.41406 60.5566 2.44661 60.8398 2.51172C61.1263 2.57357 61.3737 2.68099 61.582 2.83398C61.7871 2.98372 61.9434 3.17741 62.0508 3.41504C62.1582 3.65267 62.2119 3.94727 62.2119 4.29883V8ZM61.2988 6.65723V5.13867C61.0189 5.15495 60.6885 5.17936 60.3076 5.21191C59.93 5.24447 59.6305 5.29167 59.4092 5.35352C59.1455 5.42839 58.9323 5.54557 58.7695 5.70508C58.6068 5.86133 58.5254 6.0778 58.5254 6.35449C58.5254 6.66699 58.6198 6.90299 58.8086 7.0625C58.9974 7.21875 59.2855 7.29688 59.6729 7.29688C59.9951 7.29688 60.2897 7.23503 60.5566 7.11133C60.8236 6.98438 61.071 6.83301 61.2988 6.65723ZM68.54 8H67.6221V4.89453C67.6221 4.64388 67.6074 4.40951 67.5781 4.19141C67.5488 3.97005 67.4951 3.79753 67.417 3.67383C67.3356 3.53711 67.2184 3.4362 67.0654 3.37109C66.9124 3.30273 66.7139 3.26855 66.4697 3.26855C66.2191 3.26855 65.957 3.3304 65.6836 3.4541C65.4102 3.5778 65.1481 3.73568 64.8975 3.92773V8H63.9795V2.5459H64.8975V3.15137C65.1839 2.91374 65.4801 2.72819 65.7861 2.59473C66.0921 2.46126 66.4062 2.39453 66.7285 2.39453C67.3177 2.39453 67.7669 2.57194 68.0762 2.92676C68.3854 3.28158 68.54 3.79264 68.54 4.45996V8ZM74.7314 8H73.8135V7.42871C73.5498 7.65658 73.2747 7.83398 72.9883 7.96094C72.7018 8.08789 72.391 8.15137 72.0557 8.15137C71.4046 8.15137 70.887 7.90072 70.5029 7.39941C70.1221 6.89811 69.9316 6.20312 69.9316 5.31445C69.9316 4.85221 69.9967 4.44043 70.127 4.0791C70.2604 3.71777 70.4395 3.41016 70.6641 3.15625C70.8854 2.90885 71.1426 2.72005 71.4355 2.58984C71.7318 2.45964 72.0378 2.39453 72.3535 2.39453C72.64 2.39453 72.8939 2.42546 73.1152 2.4873C73.3366 2.5459 73.5693 2.63867 73.8135 2.76562V0.402344H74.7314V8ZM73.8135 6.65723V3.52734C73.5661 3.41667 73.3447 3.34017 73.1494 3.29785C72.9541 3.25553 72.7409 3.23438 72.5098 3.23438C71.9954 3.23438 71.5951 3.41341 71.3086 3.77148C71.0221 4.12956 70.8789 4.63737 70.8789 5.29492C70.8789 5.94271 70.9896 6.43587 71.2109 6.77441C71.4323 7.1097 71.7871 7.27734 72.2754 7.27734C72.5358 7.27734 72.7995 7.22038 73.0664 7.10645C73.3333 6.98926 73.5824 6.83952 73.8135 6.65723ZM83.457 3.54688H83.4082C83.2715 3.51432 83.138 3.49154 83.0078 3.47852C82.8809 3.46224 82.7295 3.4541 82.5537 3.4541C82.2705 3.4541 81.9971 3.51758 81.7334 3.64453C81.4697 3.76823 81.2158 3.92936 80.9717 4.12793V8H80.0537V2.5459H80.9717V3.35156C81.3363 3.05859 81.6569 2.85189 81.9336 2.73145C82.2135 2.60775 82.4984 2.5459 82.7881 2.5459C82.9476 2.5459 83.0632 2.55078 83.1348 2.56055C83.2064 2.56706 83.3138 2.58171 83.457 2.60449V3.54688ZM88.8867 5.36816H84.8682C84.8682 5.70345 84.9186 5.99642 85.0195 6.24707C85.1204 6.49447 85.2588 6.69792 85.4346 6.85742C85.6038 7.01367 85.804 7.13086 86.0352 7.20898C86.2695 7.28711 86.5267 7.32617 86.8066 7.32617C87.1777 7.32617 87.5505 7.25293 87.9248 7.10645C88.3024 6.95671 88.571 6.81022 88.7305 6.66699H88.7793V7.66797C88.4701 7.79818 88.1543 7.90723 87.832 7.99512C87.5098 8.08301 87.1712 8.12695 86.8164 8.12695C85.9115 8.12695 85.2051 7.88281 84.6973 7.39453C84.1895 6.90299 83.9355 6.20638 83.9355 5.30469C83.9355 4.41276 84.1781 3.70475 84.6631 3.18066C85.1514 2.65658 85.7926 2.39453 86.5869 2.39453C87.3226 2.39453 87.889 2.60938 88.2861 3.03906C88.6865 3.46875 88.8867 4.0791 88.8867 4.87012V5.36816ZM87.9932 4.66504C87.9899 4.18327 87.8678 3.81055 87.627 3.54688C87.3893 3.2832 87.0264 3.15137 86.5381 3.15137C86.0465 3.15137 85.6543 3.29622 85.3613 3.58594C85.0716 3.87565 84.9072 4.23535 84.8682 4.66504H87.9932ZM94.7021 10.0117H93.7842V7.38477C93.501 7.62891 93.2194 7.8112 92.9395 7.93164C92.6595 8.04883 92.3568 8.10742 92.0312 8.10742C91.3835 8.10742 90.8659 7.8584 90.4785 7.36035C90.0944 6.85905 89.9023 6.16895 89.9023 5.29004C89.9023 4.82129 89.9691 4.40788 90.1025 4.0498C90.2393 3.68848 90.4183 3.38574 90.6396 3.1416C90.8545 2.90397 91.1068 2.72005 91.3965 2.58984C91.6862 2.45964 91.9922 2.39453 92.3145 2.39453C92.6074 2.39453 92.8662 2.42708 93.0908 2.49219C93.3187 2.55729 93.5498 2.65332 93.7842 2.78027L93.8428 2.5459H94.7021V10.0117ZM93.7842 6.61328V3.52734C93.5303 3.41341 93.3057 3.33366 93.1104 3.28809C92.915 3.24251 92.7035 3.21973 92.4756 3.21973C91.945 3.21973 91.5413 3.40039 91.2646 3.76172C90.988 4.11979 90.8496 4.61458 90.8496 5.24609C90.8496 5.88411 90.9603 6.37565 91.1816 6.7207C91.4062 7.0625 91.7578 7.2334 92.2363 7.2334C92.5033 7.2334 92.7702 7.17643 93.0371 7.0625C93.304 6.94531 93.5531 6.79557 93.7842 6.61328ZM101.03 8H100.112V7.39453C99.8031 7.63867 99.5068 7.82585 99.2236 7.95605C98.9404 8.08626 98.6279 8.15137 98.2861 8.15137C97.7132 8.15137 97.2673 7.97721 96.9482 7.62891C96.6292 7.27734 96.4697 6.76302 96.4697 6.08594V2.5459H97.3877V5.65137C97.3877 5.92806 97.4007 6.16569 97.4268 6.36426C97.4528 6.55957 97.5081 6.72721 97.5928 6.86719C97.6807 7.01042 97.7946 7.11458 97.9346 7.17969C98.0745 7.24479 98.278 7.27734 98.5449 7.27734C98.7826 7.27734 99.0413 7.21549 99.3213 7.0918C99.6045 6.9681 99.8682 6.81022 100.112 6.61816V2.5459H101.03V8ZM107.402 5.36816H103.384C103.384 5.70345 103.434 5.99642 103.535 6.24707C103.636 6.49447 103.774 6.69792 103.95 6.85742C104.119 7.01367 104.32 7.13086 104.551 7.20898C104.785 7.28711 105.042 7.32617 105.322 7.32617C105.693 7.32617 106.066 7.25293 106.44 7.10645C106.818 6.95671 107.087 6.81022 107.246 6.66699H107.295V7.66797C106.986 7.79818 106.67 7.90723 106.348 7.99512C106.025 8.08301 105.687 8.12695 105.332 8.12695C104.427 8.12695 103.721 7.88281 103.213 7.39453C102.705 6.90299 102.451 6.20638 102.451 5.30469C102.451 4.41276 102.694 3.70475 103.179 3.18066C103.667 2.65658 104.308 2.39453 105.103 2.39453C105.838 2.39453 106.405 2.60938 106.802 3.03906C107.202 3.46875 107.402 4.0791 107.402 4.87012V5.36816ZM106.509 4.66504C106.506 4.18327 106.383 3.81055 106.143 3.54688C105.905 3.2832 105.542 3.15137 105.054 3.15137C104.562 3.15137 104.17 3.29622 103.877 3.58594C103.587 3.87565 103.423 4.23535 103.384 4.66504H106.509ZM112.69 6.42773C112.69 6.92578 112.484 7.33431 112.07 7.65332C111.66 7.97233 111.099 8.13184 110.386 8.13184C109.982 8.13184 109.611 8.08464 109.272 7.99023C108.937 7.89258 108.656 7.78678 108.428 7.67285V6.64258H108.477C108.766 6.86068 109.089 7.03483 109.443 7.16504C109.798 7.29199 110.138 7.35547 110.464 7.35547C110.868 7.35547 111.183 7.29036 111.411 7.16016C111.639 7.02995 111.753 6.82487 111.753 6.54492C111.753 6.33008 111.691 6.16732 111.567 6.05664C111.444 5.94596 111.206 5.85156 110.854 5.77344C110.724 5.74414 110.553 5.70996 110.342 5.6709C110.133 5.63184 109.943 5.58952 109.771 5.54395C109.292 5.41699 108.952 5.23145 108.75 4.9873C108.551 4.73991 108.452 4.43717 108.452 4.0791C108.452 3.85449 108.498 3.6429 108.589 3.44434C108.683 3.24577 108.825 3.06836 109.014 2.91211C109.196 2.75911 109.427 2.63867 109.707 2.55078C109.99 2.45964 110.306 2.41406 110.654 2.41406C110.98 2.41406 111.309 2.45475 111.641 2.53613C111.976 2.61426 112.254 2.71029 112.476 2.82422V3.80566H112.427C112.192 3.63314 111.908 3.48828 111.572 3.37109C111.237 3.25065 110.908 3.19043 110.586 3.19043C110.251 3.19043 109.967 3.25553 109.736 3.38574C109.505 3.5127 109.39 3.70312 109.39 3.95703C109.39 4.18164 109.46 4.35091 109.6 4.46484C109.736 4.57878 109.958 4.67155 110.264 4.74316C110.433 4.78223 110.622 4.82129 110.83 4.86035C111.042 4.89941 111.217 4.93522 111.357 4.96777C111.784 5.06543 112.113 5.23307 112.344 5.4707C112.575 5.71159 112.69 6.0306 112.69 6.42773ZM116.841 7.95117C116.668 7.99674 116.479 8.03418 116.274 8.06348C116.073 8.09277 115.892 8.10742 115.732 8.10742C115.176 8.10742 114.753 7.95768 114.463 7.6582C114.173 7.35872 114.028 6.87858 114.028 6.21777V3.31738H113.408V2.5459H114.028V0.978516H114.946V2.5459H116.841V3.31738H114.946V5.80273C114.946 6.08919 114.953 6.3138 114.966 6.47656C114.979 6.63607 115.024 6.78581 115.103 6.92578C115.174 7.05599 115.272 7.15202 115.396 7.21387C115.522 7.27246 115.715 7.30176 115.972 7.30176C116.121 7.30176 116.278 7.2806 116.44 7.23828C116.603 7.19271 116.72 7.15527 116.792 7.12598H116.841V7.95117ZM125.708 8H124.795V7.41895C124.714 7.47428 124.603 7.55241 124.463 7.65332C124.326 7.75098 124.193 7.8291 124.062 7.8877C123.91 7.96257 123.734 8.02441 123.535 8.07324C123.337 8.12533 123.104 8.15137 122.837 8.15137C122.345 8.15137 121.929 7.98861 121.587 7.66309C121.245 7.33757 121.074 6.92253 121.074 6.41797C121.074 6.00456 121.162 5.6709 121.338 5.41699C121.517 5.15983 121.771 4.95801 122.1 4.81152C122.432 4.66504 122.83 4.56576 123.296 4.51367C123.761 4.46159 124.261 4.42253 124.795 4.39648V4.25488C124.795 4.04655 124.757 3.87402 124.683 3.7373C124.611 3.60059 124.507 3.49316 124.37 3.41504C124.24 3.34017 124.084 3.28971 123.901 3.26367C123.719 3.23763 123.529 3.22461 123.33 3.22461C123.089 3.22461 122.821 3.25716 122.524 3.32227C122.228 3.38411 121.922 3.47526 121.606 3.5957H121.558V2.66309C121.737 2.61426 121.995 2.56055 122.334 2.50195C122.673 2.44336 123.006 2.41406 123.335 2.41406C123.719 2.41406 124.053 2.44661 124.336 2.51172C124.622 2.57357 124.87 2.68099 125.078 2.83398C125.283 2.98372 125.439 3.17741 125.547 3.41504C125.654 3.65267 125.708 3.94727 125.708 4.29883V8ZM124.795 6.65723V5.13867C124.515 5.15495 124.185 5.17936 123.804 5.21191C123.426 5.24447 123.127 5.29167 122.905 5.35352C122.642 5.42839 122.428 5.54557 122.266 5.70508C122.103 5.86133 122.021 6.0778 122.021 6.35449C122.021 6.66699 122.116 6.90299 122.305 7.0625C122.493 7.21875 122.782 7.29688 123.169 7.29688C123.491 7.29688 123.786 7.23503 124.053 7.11133C124.32 6.98438 124.567 6.83301 124.795 6.65723ZM135.024 7.6582C134.718 7.80469 134.427 7.91862 134.15 8C133.877 8.08138 133.586 8.12207 133.276 8.12207C132.882 8.12207 132.521 8.0651 132.192 7.95117C131.864 7.83398 131.582 7.6582 131.348 7.42383C131.11 7.18945 130.926 6.89323 130.796 6.53516C130.666 6.17708 130.601 5.75879 130.601 5.28027C130.601 4.38835 130.845 3.68848 131.333 3.18066C131.825 2.67285 132.472 2.41895 133.276 2.41895C133.589 2.41895 133.895 2.46289 134.194 2.55078C134.497 2.63867 134.774 2.74609 135.024 2.87305V3.89355H134.976C134.696 3.67546 134.406 3.50781 134.106 3.39062C133.81 3.27344 133.521 3.21484 133.237 3.21484C132.716 3.21484 132.305 3.39062 132.002 3.74219C131.702 4.09049 131.553 4.60319 131.553 5.28027C131.553 5.93783 131.699 6.44401 131.992 6.79883C132.288 7.15039 132.703 7.32617 133.237 7.32617C133.423 7.32617 133.612 7.30176 133.804 7.25293C133.996 7.2041 134.168 7.14062 134.321 7.0625C134.455 6.99414 134.58 6.92253 134.697 6.84766C134.814 6.76953 134.907 6.7028 134.976 6.64746H135.024V7.6582ZM140.854 5.27539C140.854 6.16406 140.627 6.86556 140.171 7.37988C139.715 7.89421 139.105 8.15137 138.34 8.15137C137.568 8.15137 136.955 7.89421 136.499 7.37988C136.047 6.86556 135.82 6.16406 135.82 5.27539C135.82 4.38672 136.047 3.68522 136.499 3.1709C136.955 2.65332 137.568 2.39453 138.34 2.39453C139.105 2.39453 139.715 2.65332 140.171 3.1709C140.627 3.68522 140.854 4.38672 140.854 5.27539ZM139.907 5.27539C139.907 4.56901 139.769 4.04492 139.492 3.70312C139.215 3.35807 138.831 3.18555 138.34 3.18555C137.842 3.18555 137.454 3.35807 137.178 3.70312C136.904 4.04492 136.768 4.56901 136.768 5.27539C136.768 5.95898 136.906 6.47819 137.183 6.83301C137.459 7.18457 137.845 7.36035 138.34 7.36035C138.828 7.36035 139.211 7.1862 139.487 6.83789C139.767 6.48633 139.907 5.96549 139.907 5.27539ZM147.08 5.20703C147.08 5.64974 147.017 6.05501 146.89 6.42285C146.763 6.78743 146.584 7.09668 146.353 7.35059C146.138 7.59147 145.884 7.77865 145.591 7.91211C145.301 8.04232 144.993 8.10742 144.668 8.10742C144.385 8.10742 144.128 8.0765 143.896 8.01465C143.669 7.9528 143.436 7.85677 143.198 7.72656V10.0117H142.28V2.5459H143.198V3.11719C143.442 2.91211 143.716 2.74121 144.019 2.60449C144.325 2.46452 144.65 2.39453 144.995 2.39453C145.653 2.39453 146.164 2.64355 146.528 3.1416C146.896 3.63639 147.08 4.32487 147.08 5.20703ZM146.133 5.23145C146.133 4.57389 146.021 4.08236 145.796 3.75684C145.571 3.43132 145.226 3.26855 144.761 3.26855C144.497 3.26855 144.232 3.32552 143.965 3.43945C143.698 3.55339 143.442 3.70312 143.198 3.88867V6.97949C143.459 7.09668 143.682 7.17643 143.867 7.21875C144.056 7.26107 144.269 7.28223 144.507 7.28223C145.018 7.28223 145.417 7.1097 145.703 6.76465C145.99 6.4196 146.133 5.90853 146.133 5.23145ZM153.228 2.5459L150.044 10.0117H149.062L150.078 7.73633L147.905 2.5459H148.901L150.576 6.58887L152.266 2.5459H153.228Z" fill="black"/>
</svg>
