<svg width="100" height="18" viewBox="0 0 100 18" fill="none" xmlns="http://www.w3.org/2000/svg">
<path d="M11.8145 7.46973C11.8145 8.65918 11.5537 9.7373 11.0322 10.7041C10.5166 11.6709 9.82812 12.4209 8.9668 12.9541C8.36914 13.3232 7.70117 13.5898 6.96289 13.7539C6.23047 13.918 5.26367 14 4.0625 14H0.757812V0.913086H4.02734C5.30469 0.913086 6.31836 1.00684 7.06836 1.19434C7.82422 1.37598 8.46289 1.62793 8.98438 1.9502C9.875 2.50684 10.5693 3.24805 11.0674 4.17383C11.5654 5.09961 11.8145 6.19824 11.8145 7.46973ZM9.99512 7.44336C9.99512 6.41797 9.81641 5.55371 9.45898 4.85059C9.10156 4.14746 8.56836 3.59375 7.85938 3.18945C7.34375 2.89648 6.7959 2.69434 6.21582 2.58301C5.63574 2.46582 4.94141 2.40723 4.13281 2.40723H2.49805V12.5059H4.13281C4.9707 12.5059 5.7002 12.4443 6.32129 12.3213C6.94824 12.1982 7.52246 11.9697 8.04395 11.6357C8.69434 11.2197 9.18066 10.6719 9.50293 9.99219C9.83105 9.3125 9.99512 8.46289 9.99512 7.44336ZM22.7129 9.2627H15.4795C15.4795 9.86621 15.5703 10.3936 15.752 10.8447C15.9336 11.29 16.1826 11.6562 16.499 11.9434C16.8037 12.2246 17.1641 12.4355 17.5801 12.5762C18.002 12.7168 18.4648 12.7871 18.9688 12.7871C19.6367 12.7871 20.3076 12.6553 20.9814 12.3916C21.6611 12.1221 22.1445 11.8584 22.4316 11.6006H22.5195V13.4023C21.9629 13.6367 21.3945 13.833 20.8145 13.9912C20.2344 14.1494 19.625 14.2285 18.9863 14.2285C17.3574 14.2285 16.0859 13.7891 15.1719 12.9102C14.2578 12.0254 13.8008 10.7715 13.8008 9.14844C13.8008 7.54297 14.2373 6.26855 15.1104 5.3252C15.9893 4.38184 17.1436 3.91016 18.5732 3.91016C19.8975 3.91016 20.917 4.29688 21.6318 5.07031C22.3525 5.84375 22.7129 6.94238 22.7129 8.36621V9.2627ZM21.1045 7.99707C21.0986 7.12988 20.8789 6.45898 20.4453 5.98438C20.0176 5.50977 19.3643 5.27246 18.4854 5.27246C17.6006 5.27246 16.8945 5.5332 16.3672 6.05469C15.8457 6.57617 15.5498 7.22363 15.4795 7.99707H21.1045ZM32.2314 11.1699C32.2314 12.0664 31.8594 12.8018 31.1152 13.376C30.377 13.9502 29.3662 14.2373 28.083 14.2373C27.3564 14.2373 26.6885 14.1523 26.0791 13.9824C25.4756 13.8066 24.9688 13.6162 24.5586 13.4111V11.5566H24.6465C25.168 11.9492 25.748 12.2627 26.3867 12.4971C27.0254 12.7256 27.6377 12.8398 28.2236 12.8398C28.9502 12.8398 29.5186 12.7227 29.9287 12.4883C30.3389 12.2539 30.5439 11.8848 30.5439 11.3809C30.5439 10.9941 30.4326 10.7012 30.21 10.502C29.9873 10.3027 29.5596 10.1328 28.9268 9.99219C28.6924 9.93945 28.3848 9.87793 28.0039 9.80762C27.6289 9.7373 27.2861 9.66113 26.9756 9.5791C26.1143 9.35059 25.502 9.0166 25.1387 8.57715C24.7812 8.13184 24.6025 7.58691 24.6025 6.94238C24.6025 6.53809 24.6846 6.15723 24.8486 5.7998C25.0186 5.44238 25.2734 5.12305 25.6133 4.8418C25.9414 4.56641 26.3574 4.34961 26.8613 4.19141C27.3711 4.02734 27.9395 3.94531 28.5664 3.94531C29.1523 3.94531 29.7441 4.01855 30.3418 4.16504C30.9453 4.30566 31.4463 4.47852 31.8447 4.68359V6.4502H31.7568C31.335 6.13965 30.8223 5.87891 30.2188 5.66797C29.6152 5.45117 29.0234 5.34277 28.4434 5.34277C27.8398 5.34277 27.3301 5.45996 26.9141 5.69434C26.498 5.92285 26.29 6.26562 26.29 6.72266C26.29 7.12695 26.416 7.43164 26.668 7.63672C26.9141 7.8418 27.3125 8.00879 27.8633 8.1377C28.168 8.20801 28.5078 8.27832 28.8828 8.34863C29.2637 8.41895 29.5801 8.4834 29.832 8.54199C30.5996 8.71777 31.1914 9.01953 31.6074 9.44727C32.0234 9.88086 32.2314 10.4551 32.2314 11.1699ZM41.8643 13.3848C41.3135 13.6484 40.7891 13.8535 40.291 14C39.7988 14.1465 39.2744 14.2197 38.7178 14.2197C38.0088 14.2197 37.3584 14.1172 36.7666 13.9121C36.1748 13.7012 35.668 13.3848 35.2461 12.9629C34.8184 12.541 34.4873 12.0078 34.2529 11.3633C34.0186 10.7188 33.9014 9.96582 33.9014 9.10449C33.9014 7.49902 34.3408 6.23926 35.2197 5.3252C36.1045 4.41113 37.2705 3.9541 38.7178 3.9541C39.2803 3.9541 39.8311 4.0332 40.3701 4.19141C40.915 4.34961 41.4131 4.54297 41.8643 4.77148V6.6084H41.7764C41.2725 6.21582 40.751 5.91406 40.2119 5.70312C39.6787 5.49219 39.1572 5.38672 38.6475 5.38672C37.71 5.38672 36.9688 5.70312 36.4238 6.33594C35.8848 6.96289 35.6152 7.88574 35.6152 9.10449C35.6152 10.2881 35.8789 11.1992 36.4062 11.8379C36.9395 12.4707 37.6865 12.7871 38.6475 12.7871C38.9814 12.7871 39.3213 12.7432 39.667 12.6553C40.0127 12.5674 40.3232 12.4531 40.5986 12.3125C40.8389 12.1895 41.0645 12.0605 41.2754 11.9258C41.4863 11.7852 41.6533 11.665 41.7764 11.5654H41.8643V13.3848ZM50.1172 5.98438H50.0293C49.7832 5.92578 49.543 5.88477 49.3086 5.86133C49.0801 5.83203 48.8076 5.81738 48.4912 5.81738C47.9814 5.81738 47.4893 5.93164 47.0146 6.16016C46.54 6.38281 46.083 6.67285 45.6436 7.03027V14H43.9912V4.18262H45.6436V5.63281C46.2998 5.10547 46.877 4.7334 47.375 4.5166C47.8789 4.29395 48.3916 4.18262 48.9131 4.18262C49.2002 4.18262 49.4082 4.19141 49.5371 4.20898C49.666 4.2207 49.8594 4.24707 50.1172 4.28809V5.98438ZM53.4482 2.53906H51.585V0.825195H53.4482V2.53906ZM53.3428 14H51.6904V4.18262H53.3428V14ZM65.252 8.97266C65.252 9.76953 65.1377 10.499 64.9092 11.1611C64.6807 11.8174 64.3584 12.374 63.9424 12.8311C63.5557 13.2646 63.0986 13.6016 62.5713 13.8418C62.0498 14.0762 61.4961 14.1934 60.9102 14.1934C60.4004 14.1934 59.9375 14.1377 59.5215 14.0264C59.1113 13.915 58.6924 13.7422 58.2646 13.5078V17.6211H56.6123V4.18262H58.2646V5.21094C58.7041 4.8418 59.1963 4.53418 59.7412 4.28809C60.292 4.03613 60.8779 3.91016 61.499 3.91016C62.6826 3.91016 63.6025 4.3584 64.2588 5.25488C64.9209 6.14551 65.252 7.38477 65.252 8.97266ZM63.5469 9.0166C63.5469 7.83301 63.3447 6.94824 62.9404 6.3623C62.5361 5.77637 61.915 5.4834 61.0771 5.4834C60.6025 5.4834 60.125 5.58594 59.6445 5.79102C59.1641 5.99609 58.7041 6.26562 58.2646 6.59961V12.1631C58.7334 12.374 59.1348 12.5176 59.4688 12.5938C59.8086 12.6699 60.1924 12.708 60.6201 12.708C61.54 12.708 62.2578 12.3975 62.7734 11.7764C63.2891 11.1553 63.5469 10.2354 63.5469 9.0166ZM72.9248 13.9121C72.6143 13.9941 72.2744 14.0615 71.9053 14.1143C71.542 14.167 71.2168 14.1934 70.9297 14.1934C69.9277 14.1934 69.166 13.9238 68.6445 13.3848C68.123 12.8457 67.8623 11.9814 67.8623 10.792V5.57129H66.7461V4.18262H67.8623V1.36133H69.5146V4.18262H72.9248V5.57129H69.5146V10.0449C69.5146 10.5605 69.5264 10.9648 69.5498 11.2578C69.5732 11.5449 69.6553 11.8145 69.7959 12.0664C69.9248 12.3008 70.1006 12.4736 70.3232 12.585C70.5518 12.6904 70.8975 12.7432 71.3604 12.7432C71.6299 12.7432 71.9111 12.7051 72.2041 12.6289C72.4971 12.5469 72.708 12.4795 72.8369 12.4268H72.9248V13.9121ZM76.7041 2.53906H74.8408V0.825195H76.7041V2.53906ZM76.5986 14H74.9463V4.18262H76.5986V14ZM88.2354 9.0957C88.2354 10.6953 87.8252 11.958 87.0049 12.8838C86.1846 13.8096 85.0859 14.2725 83.709 14.2725C82.3203 14.2725 81.2158 13.8096 80.3955 12.8838C79.5811 11.958 79.1738 10.6953 79.1738 9.0957C79.1738 7.49609 79.5811 6.2334 80.3955 5.30762C81.2158 4.37598 82.3203 3.91016 83.709 3.91016C85.0859 3.91016 86.1846 4.37598 87.0049 5.30762C87.8252 6.2334 88.2354 7.49609 88.2354 9.0957ZM86.5303 9.0957C86.5303 7.82422 86.2812 6.88086 85.7832 6.26562C85.2852 5.64453 84.5938 5.33398 83.709 5.33398C82.8125 5.33398 82.1152 5.64453 81.6172 6.26562C81.125 6.88086 80.8789 7.82422 80.8789 9.0957C80.8789 10.3262 81.1279 11.2607 81.626 11.8994C82.124 12.5322 82.8184 12.8486 83.709 12.8486C84.5879 12.8486 85.2764 12.5352 85.7744 11.9082C86.2783 11.2754 86.5303 10.3379 86.5303 9.0957ZM99.0107 14H97.3584V8.41016C97.3584 7.95898 97.332 7.53711 97.2793 7.14453C97.2266 6.74609 97.1299 6.43555 96.9893 6.21289C96.8428 5.9668 96.6318 5.78516 96.3564 5.66797C96.0811 5.54492 95.7236 5.4834 95.2842 5.4834C94.833 5.4834 94.3613 5.59473 93.8691 5.81738C93.377 6.04004 92.9053 6.32422 92.4541 6.66992V14H90.8018V4.18262H92.4541V5.27246C92.9697 4.84473 93.5029 4.51074 94.0537 4.27051C94.6045 4.03027 95.1699 3.91016 95.75 3.91016C96.8105 3.91016 97.6191 4.22949 98.1758 4.86816C98.7324 5.50684 99.0107 6.42676 99.0107 7.62793V14Z" fill="black"/>
</svg>
