<svg width="139" height="11" viewBox="0 0 139 11" fill="none" xmlns="http://www.w3.org/2000/svg">
<path d="M6.53809 8H5.57129V4.44043H1.94336V8H0.976562V0.729492H1.94336V3.58105H5.57129V0.729492H6.53809V8ZM13.0713 5.27539C13.0713 6.16406 12.8434 6.86556 12.3877 7.37988C11.932 7.89421 11.3216 8.15137 10.5566 8.15137C9.78516 8.15137 9.17155 7.89421 8.71582 7.37988C8.26335 6.86556 8.03711 6.16406 8.03711 5.27539C8.03711 4.38672 8.26335 3.68522 8.71582 3.1709C9.17155 2.65332 9.78516 2.39453 10.5566 2.39453C11.3216 2.39453 11.932 2.65332 12.3877 3.1709C12.8434 3.68522 13.0713 4.38672 13.0713 5.27539ZM12.124 5.27539C12.124 4.56901 11.9857 4.04492 11.709 3.70312C11.4323 3.35807 11.0482 3.18555 10.5566 3.18555C10.0586 3.18555 9.67122 3.35807 9.39453 3.70312C9.12109 4.04492 8.98438 4.56901 8.98438 5.27539C8.98438 5.95898 9.12272 6.47819 9.39941 6.83301C9.67611 7.18457 10.0618 7.36035 10.5566 7.36035C11.0449 7.36035 11.4274 7.1862 11.7041 6.83789C11.984 6.48633 12.124 5.96549 12.124 5.27539ZM21.3574 2.5459L19.9365 8H19.0869L17.6855 3.7959L16.2939 8H15.4492L14.0137 2.5459H14.9707L15.9717 6.76953L17.334 2.5459H18.0908L19.4873 6.76953L20.4346 2.5459H21.3574ZM30.6201 8H29.7021V7.42871C29.4385 7.65658 29.1634 7.83398 28.877 7.96094C28.5905 8.08789 28.2796 8.15137 27.9443 8.15137C27.2933 8.15137 26.7757 7.90072 26.3916 7.39941C26.0107 6.89811 25.8203 6.20312 25.8203 5.31445C25.8203 4.85221 25.8854 4.44043 26.0156 4.0791C26.1491 3.71777 26.3281 3.41016 26.5527 3.15625C26.7741 2.90885 27.0312 2.72005 27.3242 2.58984C27.6204 2.45964 27.9264 2.39453 28.2422 2.39453C28.5286 2.39453 28.7826 2.42546 29.0039 2.4873C29.2253 2.5459 29.458 2.63867 29.7021 2.76562V0.402344H30.6201V8ZM29.7021 6.65723V3.52734C29.4548 3.41667 29.2334 3.34017 29.0381 3.29785C28.8428 3.25553 28.6296 3.23438 28.3984 3.23438C27.8841 3.23438 27.4837 3.41341 27.1973 3.77148C26.9108 4.12956 26.7676 4.63737 26.7676 5.29492C26.7676 5.94271 26.8783 6.43587 27.0996 6.77441C27.321 7.1097 27.6758 7.27734 28.1641 7.27734C28.4245 7.27734 28.6882 7.22038 28.9551 7.10645C29.222 6.98926 29.471 6.83952 29.7021 6.65723ZM33.4131 1.63281H32.3779V0.680664H33.4131V1.63281ZM33.3545 8H32.4365V2.5459H33.3545V8ZM39.5947 8H38.6768V7.42871C38.4131 7.65658 38.138 7.83398 37.8516 7.96094C37.5651 8.08789 37.2542 8.15137 36.9189 8.15137C36.2679 8.15137 35.7503 7.90072 35.3662 7.39941C34.9854 6.89811 34.7949 6.20312 34.7949 5.31445C34.7949 4.85221 34.86 4.44043 34.9902 4.0791C35.1237 3.71777 35.3027 3.41016 35.5273 3.15625C35.7487 2.90885 36.0059 2.72005 36.2988 2.58984C36.5951 2.45964 36.901 2.39453 37.2168 2.39453C37.5033 2.39453 37.7572 2.42546 37.9785 2.4873C38.1999 2.5459 38.4326 2.63867 38.6768 2.76562V0.402344H39.5947V8ZM38.6768 6.65723V3.52734C38.4294 3.41667 38.208 3.34017 38.0127 3.29785C37.8174 3.25553 37.6042 3.23438 37.373 3.23438C36.8587 3.23438 36.4583 3.41341 36.1719 3.77148C35.8854 4.12956 35.7422 4.63737 35.7422 5.29492C35.7422 5.94271 35.8529 6.43587 36.0742 6.77441C36.2956 7.1097 36.6504 7.27734 37.1387 7.27734C37.3991 7.27734 37.6628 7.22038 37.9297 7.10645C38.1966 6.98926 38.4456 6.83952 38.6768 6.65723ZM47.749 7.95117C47.5765 7.99674 47.3877 8.03418 47.1826 8.06348C46.9808 8.09277 46.8001 8.10742 46.6406 8.10742C46.084 8.10742 45.6608 7.95768 45.3711 7.6582C45.0814 7.35872 44.9365 6.87858 44.9365 6.21777V3.31738H44.3164V2.5459H44.9365V0.978516H45.8545V2.5459H47.749V3.31738H45.8545V5.80273C45.8545 6.08919 45.861 6.3138 45.874 6.47656C45.887 6.63607 45.9326 6.78581 46.0107 6.92578C46.0824 7.05599 46.18 7.15202 46.3037 7.21387C46.4307 7.27246 46.6227 7.30176 46.8799 7.30176C47.0296 7.30176 47.1859 7.2806 47.3486 7.23828C47.5114 7.19271 47.6286 7.15527 47.7002 7.12598H47.749V7.95117ZM53.4229 8H52.5049V4.89453C52.5049 4.64388 52.4902 4.40951 52.4609 4.19141C52.4316 3.97005 52.3779 3.79753 52.2998 3.67383C52.2184 3.53711 52.1012 3.4362 51.9482 3.37109C51.7952 3.30273 51.5967 3.26855 51.3525 3.26855C51.1019 3.26855 50.8398 3.3304 50.5664 3.4541C50.293 3.5778 50.0309 3.73568 49.7803 3.92773V8H48.8623V0.402344H49.7803V3.15137C50.0667 2.91374 50.363 2.72819 50.6689 2.59473C50.9749 2.46126 51.2891 2.39453 51.6113 2.39453C52.2005 2.39453 52.6497 2.57194 52.959 2.92676C53.2682 3.28158 53.4229 3.79264 53.4229 4.45996V8ZM59.7559 5.36816H55.7373C55.7373 5.70345 55.7878 5.99642 55.8887 6.24707C55.9896 6.49447 56.1279 6.69792 56.3037 6.85742C56.473 7.01367 56.6732 7.13086 56.9043 7.20898C57.1387 7.28711 57.3958 7.32617 57.6758 7.32617C58.0469 7.32617 58.4196 7.25293 58.7939 7.10645C59.1715 6.95671 59.4401 6.81022 59.5996 6.66699H59.6484V7.66797C59.3392 7.79818 59.0234 7.90723 58.7012 7.99512C58.3789 8.08301 58.0404 8.12695 57.6855 8.12695C56.7806 8.12695 56.0742 7.88281 55.5664 7.39453C55.0586 6.90299 54.8047 6.20638 54.8047 5.30469C54.8047 4.41276 55.0472 3.70475 55.5322 3.18066C56.0205 2.65658 56.6618 2.39453 57.4561 2.39453C58.1917 2.39453 58.7581 2.60938 59.1553 3.03906C59.5557 3.46875 59.7559 4.0791 59.7559 4.87012V5.36816ZM58.8623 4.66504C58.859 4.18327 58.737 3.81055 58.4961 3.54688C58.2585 3.2832 57.8955 3.15137 57.4072 3.15137C56.9157 3.15137 56.5234 3.29622 56.2305 3.58594C55.9408 3.87565 55.7764 4.23535 55.7373 4.66504H58.8623ZM67.5977 1.29102H67.5488C67.4479 1.26172 67.3161 1.23242 67.1533 1.20312C66.9906 1.17057 66.8473 1.1543 66.7236 1.1543C66.3298 1.1543 66.0433 1.24219 65.8643 1.41797C65.6885 1.59049 65.6006 1.90462 65.6006 2.36035V2.5459H67.2559V3.31738H65.6299V8H64.7119V3.31738H64.0918V2.5459H64.7119V2.36523C64.7119 1.71745 64.873 1.22103 65.1953 0.875977C65.5176 0.527669 65.9831 0.353516 66.5918 0.353516C66.7969 0.353516 66.9808 0.363281 67.1436 0.382812C67.3096 0.402344 67.4609 0.42513 67.5977 0.451172V1.29102ZM69.165 1.63281H68.1299V0.680664H69.165V1.63281ZM69.1064 8H68.1885V2.5459H69.1064V8ZM71.8506 8H70.9326V0.402344H71.8506V8ZM81.626 8H80.708V4.89453C80.708 4.66016 80.6966 4.43392 80.6738 4.21582C80.6543 3.99772 80.6104 3.82357 80.542 3.69336C80.4671 3.55339 80.3597 3.44759 80.2197 3.37598C80.0798 3.30436 79.8779 3.26855 79.6143 3.26855C79.3571 3.26855 79.0999 3.33366 78.8428 3.46387C78.5856 3.59082 78.3285 3.75358 78.0713 3.95215C78.0811 4.02702 78.0892 4.11491 78.0957 4.21582C78.1022 4.31348 78.1055 4.41113 78.1055 4.50879V8H77.1875V4.89453C77.1875 4.65365 77.1761 4.42578 77.1533 4.21094C77.1338 3.99284 77.0898 3.81868 77.0215 3.68848C76.9466 3.5485 76.8392 3.44434 76.6992 3.37598C76.5592 3.30436 76.3574 3.26855 76.0938 3.26855C75.8431 3.26855 75.5908 3.3304 75.3369 3.4541C75.0863 3.5778 74.8356 3.73568 74.585 3.92773V8H73.667V2.5459H74.585V3.15137C74.8714 2.91374 75.1562 2.72819 75.4395 2.59473C75.7259 2.46126 76.0303 2.39453 76.3525 2.39453C76.7236 2.39453 77.0378 2.47266 77.2949 2.62891C77.5553 2.78516 77.749 3.00163 77.876 3.27832C78.2471 2.96582 78.5856 2.74121 78.8916 2.60449C79.1976 2.46452 79.5247 2.39453 79.873 2.39453C80.472 2.39453 80.9131 2.57682 81.1963 2.94141C81.4827 3.30273 81.626 3.80892 81.626 4.45996V8ZM91.333 7.37988C91.333 8.30436 91.123 8.98307 90.7031 9.41602C90.2832 9.84896 89.637 10.0654 88.7646 10.0654C88.4749 10.0654 88.1917 10.0443 87.915 10.002C87.6416 9.96289 87.3714 9.90592 87.1045 9.83105V8.89355H87.1533C87.3031 8.95215 87.5407 9.02376 87.8662 9.1084C88.1917 9.19629 88.5173 9.24023 88.8428 9.24023C89.1553 9.24023 89.4141 9.2028 89.6191 9.12793C89.8242 9.05306 89.9837 8.94889 90.0977 8.81543C90.2116 8.68848 90.293 8.53548 90.3418 8.35645C90.3906 8.17741 90.415 7.97721 90.415 7.75586V7.25781C90.1383 7.47917 89.873 7.64518 89.6191 7.75586C89.3685 7.86328 89.0479 7.91699 88.6572 7.91699C88.0062 7.91699 87.4886 7.68262 87.1045 7.21387C86.7236 6.74186 86.5332 6.0778 86.5332 5.22168C86.5332 4.75293 86.5983 4.34928 86.7285 4.01074C86.862 3.66895 87.0426 3.37435 87.2705 3.12695C87.4821 2.89583 87.7393 2.7168 88.042 2.58984C88.3447 2.45964 88.6458 2.39453 88.9453 2.39453C89.2611 2.39453 89.5247 2.42708 89.7363 2.49219C89.9512 2.55404 90.1774 2.65007 90.415 2.78027L90.4736 2.5459H91.333V7.37988ZM90.415 6.50098V3.52734C90.1709 3.41667 89.943 3.33854 89.7314 3.29297C89.5231 3.24414 89.3148 3.21973 89.1064 3.21973C88.6019 3.21973 88.2048 3.389 87.915 3.72754C87.6253 4.06608 87.4805 4.55762 87.4805 5.20215C87.4805 5.81413 87.5879 6.27799 87.8027 6.59375C88.0176 6.90951 88.374 7.06738 88.8721 7.06738C89.139 7.06738 89.4059 7.01693 89.6729 6.91602C89.943 6.81185 90.1904 6.6735 90.415 6.50098ZM97.7051 5.36816H93.6865C93.6865 5.70345 93.737 5.99642 93.8379 6.24707C93.9388 6.49447 94.0771 6.69792 94.2529 6.85742C94.4222 7.01367 94.6224 7.13086 94.8535 7.20898C95.0879 7.28711 95.3451 7.32617 95.625 7.32617C95.9961 7.32617 96.3688 7.25293 96.7432 7.10645C97.1208 6.95671 97.3893 6.81022 97.5488 6.66699H97.5977V7.66797C97.2884 7.79818 96.9727 7.90723 96.6504 7.99512C96.3281 8.08301 95.9896 8.12695 95.6348 8.12695C94.7298 8.12695 94.0234 7.88281 93.5156 7.39453C93.0078 6.90299 92.7539 6.20638 92.7539 5.30469C92.7539 4.41276 92.9964 3.70475 93.4814 3.18066C93.9697 2.65658 94.611 2.39453 95.4053 2.39453C96.141 2.39453 96.7074 2.60938 97.1045 3.03906C97.5049 3.46875 97.7051 4.0791 97.7051 4.87012V5.36816ZM96.8115 4.66504C96.8083 4.18327 96.6862 3.81055 96.4453 3.54688C96.2077 3.2832 95.8447 3.15137 95.3564 3.15137C94.8649 3.15137 94.4727 3.29622 94.1797 3.58594C93.89 3.87565 93.7256 4.23535 93.6865 4.66504H96.8115ZM101.929 7.95117C101.756 7.99674 101.567 8.03418 101.362 8.06348C101.16 8.09277 100.98 8.10742 100.82 8.10742C100.264 8.10742 99.8405 7.95768 99.5508 7.6582C99.2611 7.35872 99.1162 6.87858 99.1162 6.21777V3.31738H98.4961V2.5459H99.1162V0.978516H100.034V2.5459H101.929V3.31738H100.034V5.80273C100.034 6.08919 100.041 6.3138 100.054 6.47656C100.067 6.63607 100.112 6.78581 100.19 6.92578C100.262 7.05599 100.36 7.15202 100.483 7.21387C100.61 7.27246 100.802 7.30176 101.06 7.30176C101.209 7.30176 101.366 7.2806 101.528 7.23828C101.691 7.19271 101.808 7.15527 101.88 7.12598H101.929V7.95117ZM114.517 8H113.599V4.89453C113.599 4.66016 113.587 4.43392 113.564 4.21582C113.545 3.99772 113.501 3.82357 113.433 3.69336C113.358 3.55339 113.25 3.44759 113.11 3.37598C112.97 3.30436 112.769 3.26855 112.505 3.26855C112.248 3.26855 111.991 3.33366 111.733 3.46387C111.476 3.59082 111.219 3.75358 110.962 3.95215C110.972 4.02702 110.98 4.11491 110.986 4.21582C110.993 4.31348 110.996 4.41113 110.996 4.50879V8H110.078V4.89453C110.078 4.65365 110.067 4.42578 110.044 4.21094C110.024 3.99284 109.98 3.81868 109.912 3.68848C109.837 3.5485 109.73 3.44434 109.59 3.37598C109.45 3.30436 109.248 3.26855 108.984 3.26855C108.734 3.26855 108.481 3.3304 108.228 3.4541C107.977 3.5778 107.726 3.73568 107.476 3.92773V8H106.558V2.5459H107.476V3.15137C107.762 2.91374 108.047 2.72819 108.33 2.59473C108.617 2.46126 108.921 2.39453 109.243 2.39453C109.614 2.39453 109.928 2.47266 110.186 2.62891C110.446 2.78516 110.64 3.00163 110.767 3.27832C111.138 2.96582 111.476 2.74121 111.782 2.60449C112.088 2.46452 112.415 2.39453 112.764 2.39453C113.363 2.39453 113.804 2.57682 114.087 2.94141C114.373 3.30273 114.517 3.80892 114.517 4.45996V8ZM120.522 8H119.609V7.41895C119.528 7.47428 119.417 7.55241 119.277 7.65332C119.141 7.75098 119.007 7.8291 118.877 7.8877C118.724 7.96257 118.548 8.02441 118.35 8.07324C118.151 8.12533 117.918 8.15137 117.651 8.15137C117.16 8.15137 116.743 7.98861 116.401 7.66309C116.06 7.33757 115.889 6.92253 115.889 6.41797C115.889 6.00456 115.977 5.6709 116.152 5.41699C116.331 5.15983 116.585 4.95801 116.914 4.81152C117.246 4.66504 117.645 4.56576 118.11 4.51367C118.576 4.46159 119.076 4.42253 119.609 4.39648V4.25488C119.609 4.04655 119.572 3.87402 119.497 3.7373C119.425 3.60059 119.321 3.49316 119.185 3.41504C119.054 3.34017 118.898 3.28971 118.716 3.26367C118.534 3.23763 118.343 3.22461 118.145 3.22461C117.904 3.22461 117.635 3.25716 117.339 3.32227C117.043 3.38411 116.737 3.47526 116.421 3.5957H116.372V2.66309C116.551 2.61426 116.81 2.56055 117.148 2.50195C117.487 2.44336 117.821 2.41406 118.149 2.41406C118.534 2.41406 118.867 2.44661 119.15 2.51172C119.437 2.57357 119.684 2.68099 119.893 2.83398C120.098 2.98372 120.254 3.17741 120.361 3.41504C120.469 3.65267 120.522 3.94727 120.522 4.29883V8ZM119.609 6.65723V5.13867C119.329 5.15495 118.999 5.17936 118.618 5.21191C118.241 5.24447 117.941 5.29167 117.72 5.35352C117.456 5.42839 117.243 5.54557 117.08 5.70508C116.917 5.86133 116.836 6.0778 116.836 6.35449C116.836 6.66699 116.93 6.90299 117.119 7.0625C117.308 7.21875 117.596 7.29688 117.983 7.29688C118.306 7.29688 118.6 7.23503 118.867 7.11133C119.134 6.98438 119.382 6.83301 119.609 6.65723ZM126.714 8H125.796V7.42871C125.532 7.65658 125.257 7.83398 124.971 7.96094C124.684 8.08789 124.373 8.15137 124.038 8.15137C123.387 8.15137 122.869 7.90072 122.485 7.39941C122.104 6.89811 121.914 6.20312 121.914 5.31445C121.914 4.85221 121.979 4.44043 122.109 4.0791C122.243 3.71777 122.422 3.41016 122.646 3.15625C122.868 2.90885 123.125 2.72005 123.418 2.58984C123.714 2.45964 124.02 2.39453 124.336 2.39453C124.622 2.39453 124.876 2.42546 125.098 2.4873C125.319 2.5459 125.552 2.63867 125.796 2.76562V0.402344H126.714V8ZM125.796 6.65723V3.52734C125.549 3.41667 125.327 3.34017 125.132 3.29785C124.937 3.25553 124.723 3.23438 124.492 3.23438C123.978 3.23438 123.577 3.41341 123.291 3.77148C123.005 4.12956 122.861 4.63737 122.861 5.29492C122.861 5.94271 122.972 6.43587 123.193 6.77441C123.415 7.1097 123.77 7.27734 124.258 7.27734C124.518 7.27734 124.782 7.22038 125.049 7.10645C125.316 6.98926 125.565 6.83952 125.796 6.65723ZM133.086 5.36816H129.067C129.067 5.70345 129.118 5.99642 129.219 6.24707C129.32 6.49447 129.458 6.69792 129.634 6.85742C129.803 7.01367 130.003 7.13086 130.234 7.20898C130.469 7.28711 130.726 7.32617 131.006 7.32617C131.377 7.32617 131.75 7.25293 132.124 7.10645C132.502 6.95671 132.77 6.81022 132.93 6.66699H132.979V7.66797C132.669 7.79818 132.354 7.90723 132.031 7.99512C131.709 8.08301 131.37 8.12695 131.016 8.12695C130.111 8.12695 129.404 7.88281 128.896 7.39453C128.389 6.90299 128.135 6.20638 128.135 5.30469C128.135 4.41276 128.377 3.70475 128.862 3.18066C129.351 2.65658 129.992 2.39453 130.786 2.39453C131.522 2.39453 132.088 2.60938 132.485 3.03906C132.886 3.46875 133.086 4.0791 133.086 4.87012V5.36816ZM132.192 4.66504C132.189 4.18327 132.067 3.81055 131.826 3.54688C131.589 3.2832 131.226 3.15137 130.737 3.15137C130.246 3.15137 129.854 3.29622 129.561 3.58594C129.271 3.87565 129.106 4.23535 129.067 4.66504H132.192ZM138.481 2.43848C138.481 2.75749 138.424 3.04232 138.311 3.29297C138.197 3.54036 138.047 3.76009 137.861 3.95215C137.679 4.1377 137.469 4.31185 137.231 4.47461C136.994 4.63737 136.742 4.79525 136.475 4.94824V6.04688H135.601V4.55762C135.812 4.43717 136.04 4.30534 136.284 4.16211C136.532 4.01888 136.733 3.87402 136.89 3.72754C137.078 3.55827 137.225 3.38411 137.329 3.20508C137.433 3.02279 137.485 2.79167 137.485 2.51172C137.485 2.14388 137.36 1.87044 137.109 1.69141C136.862 1.50911 136.541 1.41797 136.147 1.41797C135.796 1.41797 135.462 1.47331 135.146 1.58398C134.834 1.69466 134.587 1.80697 134.404 1.9209H134.355V0.924805C134.583 0.836914 134.871 0.758789 135.22 0.69043C135.571 0.618815 135.903 0.583008 136.216 0.583008C136.916 0.583008 137.467 0.753906 137.871 1.0957C138.278 1.43424 138.481 1.88184 138.481 2.43848ZM136.553 8H135.557V6.96973H136.553V8Z" fill="black"/>
</svg>
