<svg width="67" height="15" viewBox="0 0 67 15" fill="none" xmlns="http://www.w3.org/2000/svg">
<path d="M9.31836 4.86816C9.31836 5.44824 9.21582 5.9873 9.01074 6.48535C8.81152 6.97754 8.53027 7.40527 8.16699 7.76855C7.71582 8.21973 7.18262 8.55957 6.56738 8.78809C5.95215 9.01074 5.17578 9.12207 4.23828 9.12207H2.49805V14H0.757812V0.913086H4.30859C5.09375 0.913086 5.75879 0.980469 6.30371 1.11523C6.84863 1.24414 7.33203 1.44922 7.75391 1.73047C8.25195 2.06445 8.63574 2.48047 8.90527 2.97852C9.18066 3.47656 9.31836 4.10645 9.31836 4.86816ZM7.50781 4.91211C7.50781 4.46094 7.42871 4.06836 7.27051 3.73438C7.1123 3.40039 6.87207 3.12793 6.5498 2.91699C6.26855 2.73535 5.94629 2.60645 5.58301 2.53027C5.22559 2.44824 4.77148 2.40723 4.2207 2.40723H2.49805V7.63672H3.96582C4.66895 7.63672 5.24023 7.5752 5.67969 7.45215C6.11914 7.32324 6.47656 7.12109 6.75195 6.8457C7.02734 6.56445 7.2207 6.26855 7.33203 5.95801C7.44922 5.64746 7.50781 5.29883 7.50781 4.91211ZM17.6152 5.98438H17.5273C17.2812 5.92578 17.041 5.88477 16.8066 5.86133C16.5781 5.83203 16.3057 5.81738 15.9893 5.81738C15.4795 5.81738 14.9873 5.93164 14.5127 6.16016C14.0381 6.38281 13.5811 6.67285 13.1416 7.03027V14H11.4893V4.18262H13.1416V5.63281C13.7979 5.10547 14.375 4.7334 14.873 4.5166C15.377 4.29395 15.8896 4.18262 16.4111 4.18262C16.6982 4.18262 16.9062 4.19141 17.0352 4.20898C17.1641 4.2207 17.3574 4.24707 17.6152 4.28809V5.98438ZM27.5381 9.0957C27.5381 10.6953 27.1279 11.958 26.3076 12.8838C25.4873 13.8096 24.3887 14.2725 23.0117 14.2725C21.623 14.2725 20.5186 13.8096 19.6982 12.8838C18.8838 11.958 18.4766 10.6953 18.4766 9.0957C18.4766 7.49609 18.8838 6.2334 19.6982 5.30762C20.5186 4.37598 21.623 3.91016 23.0117 3.91016C24.3887 3.91016 25.4873 4.37598 26.3076 5.30762C27.1279 6.2334 27.5381 7.49609 27.5381 9.0957ZM25.833 9.0957C25.833 7.82422 25.584 6.88086 25.0859 6.26562C24.5879 5.64453 23.8965 5.33398 23.0117 5.33398C22.1152 5.33398 21.418 5.64453 20.9199 6.26562C20.4277 6.88086 20.1816 7.82422 20.1816 9.0957C20.1816 10.3262 20.4307 11.2607 20.9287 11.8994C21.4268 12.5322 22.1211 12.8486 23.0117 12.8486C23.8906 12.8486 24.5791 12.5352 25.0771 11.9082C25.5811 11.2754 25.833 10.3379 25.833 9.0957ZM37.3643 13.3848C36.8135 13.6484 36.2891 13.8535 35.791 14C35.2988 14.1465 34.7744 14.2197 34.2178 14.2197C33.5088 14.2197 32.8584 14.1172 32.2666 13.9121C31.6748 13.7012 31.168 13.3848 30.7461 12.9629C30.3184 12.541 29.9873 12.0078 29.7529 11.3633C29.5186 10.7188 29.4014 9.96582 29.4014 9.10449C29.4014 7.49902 29.8408 6.23926 30.7197 5.3252C31.6045 4.41113 32.7705 3.9541 34.2178 3.9541C34.7803 3.9541 35.3311 4.0332 35.8701 4.19141C36.415 4.34961 36.9131 4.54297 37.3643 4.77148V6.6084H37.2764C36.7725 6.21582 36.251 5.91406 35.7119 5.70312C35.1787 5.49219 34.6572 5.38672 34.1475 5.38672C33.21 5.38672 32.4688 5.70312 31.9238 6.33594C31.3848 6.96289 31.1152 7.88574 31.1152 9.10449C31.1152 10.2881 31.3789 11.1992 31.9062 11.8379C32.4395 12.4707 33.1865 12.7871 34.1475 12.7871C34.4814 12.7871 34.8213 12.7432 35.167 12.6553C35.5127 12.5674 35.8232 12.4531 36.0986 12.3125C36.3389 12.1895 36.5645 12.0605 36.7754 11.9258C36.9863 11.7852 37.1533 11.665 37.2764 11.5654H37.3643V13.3848ZM47.709 9.2627H40.4756C40.4756 9.86621 40.5664 10.3936 40.748 10.8447C40.9297 11.29 41.1787 11.6562 41.4951 11.9434C41.7998 12.2246 42.1602 12.4355 42.5762 12.5762C42.998 12.7168 43.4609 12.7871 43.9648 12.7871C44.6328 12.7871 45.3037 12.6553 45.9775 12.3916C46.6572 12.1221 47.1406 11.8584 47.4277 11.6006H47.5156V13.4023C46.959 13.6367 46.3906 13.833 45.8105 13.9912C45.2305 14.1494 44.6211 14.2285 43.9824 14.2285C42.3535 14.2285 41.082 13.7891 40.168 12.9102C39.2539 12.0254 38.7969 10.7715 38.7969 9.14844C38.7969 7.54297 39.2334 6.26855 40.1064 5.3252C40.9854 4.38184 42.1396 3.91016 43.5693 3.91016C44.8936 3.91016 45.9131 4.29688 46.6279 5.07031C47.3486 5.84375 47.709 6.94238 47.709 8.36621V9.2627ZM46.1006 7.99707C46.0947 7.12988 45.875 6.45898 45.4414 5.98438C45.0137 5.50977 44.3604 5.27246 43.4814 5.27246C42.5967 5.27246 41.8906 5.5332 41.3633 6.05469C40.8418 6.57617 40.5459 7.22363 40.4756 7.99707H46.1006ZM57.2275 11.1699C57.2275 12.0664 56.8555 12.8018 56.1113 13.376C55.373 13.9502 54.3623 14.2373 53.0791 14.2373C52.3525 14.2373 51.6846 14.1523 51.0752 13.9824C50.4717 13.8066 49.9648 13.6162 49.5547 13.4111V11.5566H49.6426C50.1641 11.9492 50.7441 12.2627 51.3828 12.4971C52.0215 12.7256 52.6338 12.8398 53.2197 12.8398C53.9463 12.8398 54.5146 12.7227 54.9248 12.4883C55.335 12.2539 55.54 11.8848 55.54 11.3809C55.54 10.9941 55.4287 10.7012 55.2061 10.502C54.9834 10.3027 54.5557 10.1328 53.9229 9.99219C53.6885 9.93945 53.3809 9.87793 53 9.80762C52.625 9.7373 52.2822 9.66113 51.9717 9.5791C51.1104 9.35059 50.498 9.0166 50.1348 8.57715C49.7773 8.13184 49.5986 7.58691 49.5986 6.94238C49.5986 6.53809 49.6807 6.15723 49.8447 5.7998C50.0146 5.44238 50.2695 5.12305 50.6094 4.8418C50.9375 4.56641 51.3535 4.34961 51.8574 4.19141C52.3672 4.02734 52.9355 3.94531 53.5625 3.94531C54.1484 3.94531 54.7402 4.01855 55.3379 4.16504C55.9414 4.30566 56.4424 4.47852 56.8408 4.68359V6.4502H56.7529C56.3311 6.13965 55.8184 5.87891 55.2148 5.66797C54.6113 5.45117 54.0195 5.34277 53.4395 5.34277C52.8359 5.34277 52.3262 5.45996 51.9102 5.69434C51.4941 5.92285 51.2861 6.26562 51.2861 6.72266C51.2861 7.12695 51.4121 7.43164 51.6641 7.63672C51.9102 7.8418 52.3086 8.00879 52.8594 8.1377C53.1641 8.20801 53.5039 8.27832 53.8789 8.34863C54.2598 8.41895 54.5762 8.4834 54.8281 8.54199C55.5957 8.71777 56.1875 9.01953 56.6035 9.44727C57.0195 9.88086 57.2275 10.4551 57.2275 11.1699ZM66.6143 11.1699C66.6143 12.0664 66.2422 12.8018 65.498 13.376C64.7598 13.9502 63.749 14.2373 62.4658 14.2373C61.7393 14.2373 61.0713 14.1523 60.4619 13.9824C59.8584 13.8066 59.3516 13.6162 58.9414 13.4111V11.5566H59.0293C59.5508 11.9492 60.1309 12.2627 60.7695 12.4971C61.4082 12.7256 62.0205 12.8398 62.6064 12.8398C63.333 12.8398 63.9014 12.7227 64.3115 12.4883C64.7217 12.2539 64.9268 11.8848 64.9268 11.3809C64.9268 10.9941 64.8154 10.7012 64.5928 10.502C64.3701 10.3027 63.9424 10.1328 63.3096 9.99219C63.0752 9.93945 62.7676 9.87793 62.3867 9.80762C62.0117 9.7373 61.6689 9.66113 61.3584 9.5791C60.4971 9.35059 59.8848 9.0166 59.5215 8.57715C59.1641 8.13184 58.9854 7.58691 58.9854 6.94238C58.9854 6.53809 59.0674 6.15723 59.2314 5.7998C59.4014 5.44238 59.6562 5.12305 59.9961 4.8418C60.3242 4.56641 60.7402 4.34961 61.2441 4.19141C61.7539 4.02734 62.3223 3.94531 62.9492 3.94531C63.5352 3.94531 64.127 4.01855 64.7246 4.16504C65.3281 4.30566 65.8291 4.47852 66.2275 4.68359V6.4502H66.1396C65.7178 6.13965 65.2051 5.87891 64.6016 5.66797C63.998 5.45117 63.4062 5.34277 62.8262 5.34277C62.2227 5.34277 61.7129 5.45996 61.2969 5.69434C60.8809 5.92285 60.6729 6.26562 60.6729 6.72266C60.6729 7.12695 60.7988 7.43164 61.0508 7.63672C61.2969 7.8418 61.6953 8.00879 62.2461 8.1377C62.5508 8.20801 62.8906 8.27832 63.2656 8.34863C63.6465 8.41895 63.9629 8.4834 64.2148 8.54199C64.9824 8.71777 65.5742 9.01953 65.9902 9.44727C66.4062 9.88086 66.6143 10.4551 66.6143 11.1699Z" fill="black"/>
</svg>
