<svg width="91" height="15" viewBox="0 0 91 15" fill="none" xmlns="http://www.w3.org/2000/svg">
<path d="M11.5859 14H9.32715L4.9502 8.79688H2.49805V14H0.757812V0.913086H4.42285C5.21387 0.913086 5.87305 0.96582 6.40039 1.07129C6.92773 1.1709 7.40234 1.35254 7.82422 1.61621C8.29883 1.91504 8.66797 2.29297 8.93164 2.75C9.20117 3.20117 9.33594 3.77539 9.33594 4.47266C9.33594 5.41602 9.09863 6.20703 8.62402 6.8457C8.14941 7.47852 7.49609 7.95605 6.66406 8.27832L11.5859 14ZM7.5166 4.5957C7.5166 4.2207 7.44922 3.88965 7.31445 3.60254C7.18555 3.30957 6.96875 3.06348 6.66406 2.86426C6.41211 2.69434 6.11328 2.57715 5.76758 2.5127C5.42188 2.44238 5.01465 2.40723 4.5459 2.40723H2.49805V7.34668H4.25586C4.80664 7.34668 5.28711 7.2998 5.69727 7.20605C6.10742 7.10645 6.45605 6.9248 6.74316 6.66113C7.00684 6.41504 7.2002 6.13379 7.32324 5.81738C7.45215 5.49512 7.5166 5.08789 7.5166 4.5957ZM21.3594 9.2627H14.126C14.126 9.86621 14.2168 10.3936 14.3984 10.8447C14.5801 11.29 14.8291 11.6562 15.1455 11.9434C15.4502 12.2246 15.8105 12.4355 16.2266 12.5762C16.6484 12.7168 17.1113 12.7871 17.6152 12.7871C18.2832 12.7871 18.9541 12.6553 19.6279 12.3916C20.3076 12.1221 20.791 11.8584 21.0781 11.6006H21.166V13.4023C20.6094 13.6367 20.041 13.833 19.4609 13.9912C18.8809 14.1494 18.2715 14.2285 17.6328 14.2285C16.0039 14.2285 14.7324 13.7891 13.8184 12.9102C12.9043 12.0254 12.4473 10.7715 12.4473 9.14844C12.4473 7.54297 12.8838 6.26855 13.7568 5.3252C14.6357 4.38184 15.79 3.91016 17.2197 3.91016C18.5439 3.91016 19.5635 4.29688 20.2783 5.07031C20.999 5.84375 21.3594 6.94238 21.3594 8.36621V9.2627ZM19.751 7.99707C19.7451 7.12988 19.5254 6.45898 19.0918 5.98438C18.6641 5.50977 18.0107 5.27246 17.1318 5.27246C16.2471 5.27246 15.541 5.5332 15.0137 6.05469C14.4922 6.57617 14.1963 7.22363 14.126 7.99707H19.751ZM30.8779 11.1699C30.8779 12.0664 30.5059 12.8018 29.7617 13.376C29.0234 13.9502 28.0127 14.2373 26.7295 14.2373C26.0029 14.2373 25.335 14.1523 24.7256 13.9824C24.1221 13.8066 23.6152 13.6162 23.2051 13.4111V11.5566H23.293C23.8145 11.9492 24.3945 12.2627 25.0332 12.4971C25.6719 12.7256 26.2842 12.8398 26.8701 12.8398C27.5967 12.8398 28.165 12.7227 28.5752 12.4883C28.9854 12.2539 29.1904 11.8848 29.1904 11.3809C29.1904 10.9941 29.0791 10.7012 28.8564 10.502C28.6338 10.3027 28.2061 10.1328 27.5732 9.99219C27.3389 9.93945 27.0312 9.87793 26.6504 9.80762C26.2754 9.7373 25.9326 9.66113 25.6221 9.5791C24.7607 9.35059 24.1484 9.0166 23.7852 8.57715C23.4277 8.13184 23.249 7.58691 23.249 6.94238C23.249 6.53809 23.3311 6.15723 23.4951 5.7998C23.665 5.44238 23.9199 5.12305 24.2598 4.8418C24.5879 4.56641 25.0039 4.34961 25.5078 4.19141C26.0176 4.02734 26.5859 3.94531 27.2129 3.94531C27.7988 3.94531 28.3906 4.01855 28.9883 4.16504C29.5918 4.30566 30.0928 4.47852 30.4912 4.68359V6.4502H30.4033C29.9814 6.13965 29.4688 5.87891 28.8652 5.66797C28.2617 5.45117 27.6699 5.34277 27.0898 5.34277C26.4863 5.34277 25.9766 5.45996 25.5605 5.69434C25.1445 5.92285 24.9365 6.26562 24.9365 6.72266C24.9365 7.12695 25.0625 7.43164 25.3145 7.63672C25.5605 7.8418 25.959 8.00879 26.5098 8.1377C26.8145 8.20801 27.1543 8.27832 27.5293 8.34863C27.9102 8.41895 28.2266 8.4834 28.4785 8.54199C29.2461 8.71777 29.8379 9.01953 30.2539 9.44727C30.6699 9.88086 30.8779 10.4551 30.8779 11.1699ZM41.6182 9.0957C41.6182 10.6953 41.208 11.958 40.3877 12.8838C39.5674 13.8096 38.4688 14.2725 37.0918 14.2725C35.7031 14.2725 34.5986 13.8096 33.7783 12.8838C32.9639 11.958 32.5566 10.6953 32.5566 9.0957C32.5566 7.49609 32.9639 6.2334 33.7783 5.30762C34.5986 4.37598 35.7031 3.91016 37.0918 3.91016C38.4688 3.91016 39.5674 4.37598 40.3877 5.30762C41.208 6.2334 41.6182 7.49609 41.6182 9.0957ZM39.9131 9.0957C39.9131 7.82422 39.6641 6.88086 39.166 6.26562C38.668 5.64453 37.9766 5.33398 37.0918 5.33398C36.1953 5.33398 35.498 5.64453 35 6.26562C34.5078 6.88086 34.2617 7.82422 34.2617 9.0957C34.2617 10.3262 34.5107 11.2607 35.0088 11.8994C35.5068 12.5322 36.2012 12.8486 37.0918 12.8486C37.9707 12.8486 38.6592 12.5352 39.1572 11.9082C39.6611 11.2754 39.9131 10.3379 39.9131 9.0957ZM52.3232 14H50.6709V12.9102C50.1143 13.3496 49.5811 13.6865 49.0713 13.9209C48.5615 14.1553 47.999 14.2725 47.3838 14.2725C46.3525 14.2725 45.5498 13.959 44.9756 13.332C44.4014 12.6992 44.1143 11.7734 44.1143 10.5547V4.18262H45.7666V9.77246C45.7666 10.2705 45.79 10.6982 45.8369 11.0557C45.8838 11.4072 45.9834 11.709 46.1357 11.9609C46.2939 12.2188 46.499 12.4062 46.751 12.5234C47.0029 12.6406 47.3691 12.6992 47.8496 12.6992C48.2773 12.6992 48.7432 12.5879 49.2471 12.3652C49.7568 12.1426 50.2314 11.8584 50.6709 11.5127V4.18262H52.3232V14ZM61.7012 5.98438H61.6133C61.3672 5.92578 61.127 5.88477 60.8926 5.86133C60.6641 5.83203 60.3916 5.81738 60.0752 5.81738C59.5654 5.81738 59.0732 5.93164 58.5986 6.16016C58.124 6.38281 57.667 6.67285 57.2275 7.03027V14H55.5752V4.18262H57.2275V5.63281C57.8838 5.10547 58.4609 4.7334 58.959 4.5166C59.4629 4.29395 59.9756 4.18262 60.4971 4.18262C60.7842 4.18262 60.9922 4.19141 61.1211 4.20898C61.25 4.2207 61.4434 4.24707 61.7012 4.28809V5.98438ZM70.5166 13.3848C69.9658 13.6484 69.4414 13.8535 68.9434 14C68.4512 14.1465 67.9268 14.2197 67.3701 14.2197C66.6611 14.2197 66.0107 14.1172 65.4189 13.9121C64.8271 13.7012 64.3203 13.3848 63.8984 12.9629C63.4707 12.541 63.1396 12.0078 62.9053 11.3633C62.6709 10.7188 62.5537 9.96582 62.5537 9.10449C62.5537 7.49902 62.9932 6.23926 63.8721 5.3252C64.7568 4.41113 65.9229 3.9541 67.3701 3.9541C67.9326 3.9541 68.4834 4.0332 69.0225 4.19141C69.5674 4.34961 70.0654 4.54297 70.5166 4.77148V6.6084H70.4287C69.9248 6.21582 69.4033 5.91406 68.8643 5.70312C68.3311 5.49219 67.8096 5.38672 67.2998 5.38672C66.3623 5.38672 65.6211 5.70312 65.0762 6.33594C64.5371 6.96289 64.2676 7.88574 64.2676 9.10449C64.2676 10.2881 64.5312 11.1992 65.0586 11.8379C65.5918 12.4707 66.3389 12.7871 67.2998 12.7871C67.6338 12.7871 67.9736 12.7432 68.3193 12.6553C68.665 12.5674 68.9756 12.4531 69.251 12.3125C69.4912 12.1895 69.7168 12.0605 69.9277 11.9258C70.1387 11.7852 70.3057 11.665 70.4287 11.5654H70.5166V13.3848ZM80.8613 9.2627H73.6279C73.6279 9.86621 73.7188 10.3936 73.9004 10.8447C74.082 11.29 74.3311 11.6562 74.6475 11.9434C74.9521 12.2246 75.3125 12.4355 75.7285 12.5762C76.1504 12.7168 76.6133 12.7871 77.1172 12.7871C77.7852 12.7871 78.4561 12.6553 79.1299 12.3916C79.8096 12.1221 80.293 11.8584 80.5801 11.6006H80.668V13.4023C80.1113 13.6367 79.543 13.833 78.9629 13.9912C78.3828 14.1494 77.7734 14.2285 77.1348 14.2285C75.5059 14.2285 74.2344 13.7891 73.3203 12.9102C72.4062 12.0254 71.9492 10.7715 71.9492 9.14844C71.9492 7.54297 72.3857 6.26855 73.2588 5.3252C74.1377 4.38184 75.292 3.91016 76.7217 3.91016C78.0459 3.91016 79.0654 4.29688 79.7803 5.07031C80.501 5.84375 80.8613 6.94238 80.8613 8.36621V9.2627ZM79.2529 7.99707C79.2471 7.12988 79.0273 6.45898 78.5938 5.98438C78.166 5.50977 77.5127 5.27246 76.6338 5.27246C75.749 5.27246 75.043 5.5332 74.5156 6.05469C73.9941 6.57617 73.6982 7.22363 73.6279 7.99707H79.2529ZM90.3799 11.1699C90.3799 12.0664 90.0078 12.8018 89.2637 13.376C88.5254 13.9502 87.5146 14.2373 86.2314 14.2373C85.5049 14.2373 84.8369 14.1523 84.2275 13.9824C83.624 13.8066 83.1172 13.6162 82.707 13.4111V11.5566H82.7949C83.3164 11.9492 83.8965 12.2627 84.5352 12.4971C85.1738 12.7256 85.7861 12.8398 86.3721 12.8398C87.0986 12.8398 87.667 12.7227 88.0771 12.4883C88.4873 12.2539 88.6924 11.8848 88.6924 11.3809C88.6924 10.9941 88.5811 10.7012 88.3584 10.502C88.1357 10.3027 87.708 10.1328 87.0752 9.99219C86.8408 9.93945 86.5332 9.87793 86.1523 9.80762C85.7773 9.7373 85.4346 9.66113 85.124 9.5791C84.2627 9.35059 83.6504 9.0166 83.2871 8.57715C82.9297 8.13184 82.751 7.58691 82.751 6.94238C82.751 6.53809 82.833 6.15723 82.9971 5.7998C83.167 5.44238 83.4219 5.12305 83.7617 4.8418C84.0898 4.56641 84.5059 4.34961 85.0098 4.19141C85.5195 4.02734 86.0879 3.94531 86.7148 3.94531C87.3008 3.94531 87.8926 4.01855 88.4902 4.16504C89.0938 4.30566 89.5947 4.47852 89.9932 4.68359V6.4502H89.9053C89.4834 6.13965 88.9707 5.87891 88.3672 5.66797C87.7637 5.45117 87.1719 5.34277 86.5918 5.34277C85.9883 5.34277 85.4785 5.45996 85.0625 5.69434C84.6465 5.92285 84.4385 6.26562 84.4385 6.72266C84.4385 7.12695 84.5645 7.43164 84.8164 7.63672C85.0625 7.8418 85.4609 8.00879 86.0117 8.1377C86.3164 8.20801 86.6562 8.27832 87.0312 8.34863C87.4121 8.41895 87.7285 8.4834 87.9805 8.54199C88.748 8.71777 89.3398 9.01953 89.7559 9.44727C90.1719 9.88086 90.3799 10.4551 90.3799 11.1699Z" fill="black"/>
</svg>
