<svg width="156" height="11" viewBox="0 0 156 11" fill="none" xmlns="http://www.w3.org/2000/svg">
<path d="M6.16211 1.58887H3.56445V8H2.59766V1.58887H0V0.729492H6.16211V1.58887ZM11.626 8H10.708V4.89453C10.708 4.64388 10.6934 4.40951 10.6641 4.19141C10.6348 3.97005 10.5811 3.79753 10.5029 3.67383C10.4215 3.53711 10.3044 3.4362 10.1514 3.37109C9.99837 3.30273 9.7998 3.26855 9.55566 3.26855C9.30501 3.26855 9.04297 3.3304 8.76953 3.4541C8.49609 3.5778 8.23405 3.73568 7.9834 3.92773V8H7.06543V0.402344H7.9834V3.15137C8.26986 2.91374 8.56608 2.72819 8.87207 2.59473C9.17806 2.46126 9.49219 2.39453 9.81445 2.39453C10.4036 2.39453 10.8529 2.57194 11.1621 2.92676C11.4714 3.28158 11.626 3.79264 11.626 4.45996V8ZM17.959 5.36816H13.9404C13.9404 5.70345 13.9909 5.99642 14.0918 6.24707C14.1927 6.49447 14.3311 6.69792 14.5068 6.85742C14.6761 7.01367 14.8763 7.13086 15.1074 7.20898C15.3418 7.28711 15.599 7.32617 15.8789 7.32617C16.25 7.32617 16.6227 7.25293 16.9971 7.10645C17.3747 6.95671 17.6432 6.81022 17.8027 6.66699H17.8516V7.66797C17.5423 7.79818 17.2266 7.90723 16.9043 7.99512C16.582 8.08301 16.2435 8.12695 15.8887 8.12695C14.9837 8.12695 14.2773 7.88281 13.7695 7.39453C13.2617 6.90299 13.0078 6.20638 13.0078 5.30469C13.0078 4.41276 13.2503 3.70475 13.7354 3.18066C14.2236 2.65658 14.8649 2.39453 15.6592 2.39453C16.3949 2.39453 16.9613 2.60938 17.3584 3.03906C17.7588 3.46875 17.959 4.0791 17.959 4.87012V5.36816ZM17.0654 4.66504C17.0622 4.18327 16.9401 3.81055 16.6992 3.54688C16.4616 3.2832 16.0986 3.15137 15.6104 3.15137C15.1188 3.15137 14.7266 3.29622 14.4336 3.58594C14.1439 3.87565 13.9795 4.23535 13.9404 4.66504H17.0654ZM25.6982 7.95117C25.5257 7.99674 25.3369 8.03418 25.1318 8.06348C24.93 8.09277 24.7493 8.10742 24.5898 8.10742C24.0332 8.10742 23.61 7.95768 23.3203 7.6582C23.0306 7.35872 22.8857 6.87858 22.8857 6.21777V3.31738H22.2656V2.5459H22.8857V0.978516H23.8037V2.5459H25.6982V3.31738H23.8037V5.80273C23.8037 6.08919 23.8102 6.3138 23.8232 6.47656C23.8363 6.63607 23.8818 6.78581 23.96 6.92578C24.0316 7.05599 24.1292 7.15202 24.2529 7.21387C24.3799 7.27246 24.5719 7.30176 24.8291 7.30176C24.9788 7.30176 25.1351 7.2806 25.2979 7.23828C25.4606 7.19271 25.5778 7.15527 25.6494 7.12598H25.6982V7.95117ZM31.3721 8H30.4541V4.89453C30.4541 4.64388 30.4395 4.40951 30.4102 4.19141C30.3809 3.97005 30.3271 3.79753 30.249 3.67383C30.1676 3.53711 30.0505 3.4362 29.8975 3.37109C29.7445 3.30273 29.5459 3.26855 29.3018 3.26855C29.0511 3.26855 28.7891 3.3304 28.5156 3.4541C28.2422 3.5778 27.9801 3.73568 27.7295 3.92773V8H26.8115V0.402344H27.7295V3.15137C28.016 2.91374 28.3122 2.72819 28.6182 2.59473C28.9242 2.46126 29.2383 2.39453 29.5605 2.39453C30.1497 2.39453 30.599 2.57194 30.9082 2.92676C31.2174 3.28158 31.3721 3.79264 31.3721 4.45996V8ZM37.7051 5.36816H33.6865C33.6865 5.70345 33.737 5.99642 33.8379 6.24707C33.9388 6.49447 34.0771 6.69792 34.2529 6.85742C34.4222 7.01367 34.6224 7.13086 34.8535 7.20898C35.0879 7.28711 35.3451 7.32617 35.625 7.32617C35.9961 7.32617 36.3688 7.25293 36.7432 7.10645C37.1208 6.95671 37.3893 6.81022 37.5488 6.66699H37.5977V7.66797C37.2884 7.79818 36.9727 7.90723 36.6504 7.99512C36.3281 8.08301 35.9896 8.12695 35.6348 8.12695C34.7298 8.12695 34.0234 7.88281 33.5156 7.39453C33.0078 6.90299 32.7539 6.20638 32.7539 5.30469C32.7539 4.41276 32.9964 3.70475 33.4814 3.18066C33.9697 2.65658 34.611 2.39453 35.4053 2.39453C36.141 2.39453 36.7074 2.60938 37.1045 3.03906C37.5049 3.46875 37.7051 4.0791 37.7051 4.87012V5.36816ZM36.8115 4.66504C36.8083 4.18327 36.6862 3.81055 36.4453 3.54688C36.2077 3.2832 35.8447 3.15137 35.3564 3.15137C34.8649 3.15137 34.4727 3.29622 34.1797 3.58594C33.89 3.87565 33.7256 4.23535 33.6865 4.66504H36.8115ZM47.0557 8H46.1377V4.89453C46.1377 4.66016 46.1263 4.43392 46.1035 4.21582C46.084 3.99772 46.04 3.82357 45.9717 3.69336C45.8968 3.55339 45.7894 3.44759 45.6494 3.37598C45.5094 3.30436 45.3076 3.26855 45.0439 3.26855C44.7868 3.26855 44.5296 3.33366 44.2725 3.46387C44.0153 3.59082 43.7581 3.75358 43.501 3.95215C43.5107 4.02702 43.5189 4.11491 43.5254 4.21582C43.5319 4.31348 43.5352 4.41113 43.5352 4.50879V8H42.6172V4.89453C42.6172 4.65365 42.6058 4.42578 42.583 4.21094C42.5635 3.99284 42.5195 3.81868 42.4512 3.68848C42.3763 3.5485 42.2689 3.44434 42.1289 3.37598C41.9889 3.30436 41.7871 3.26855 41.5234 3.26855C41.2728 3.26855 41.0205 3.3304 40.7666 3.4541C40.516 3.5778 40.2653 3.73568 40.0146 3.92773V8H39.0967V2.5459H40.0146V3.15137C40.3011 2.91374 40.5859 2.72819 40.8691 2.59473C41.1556 2.46126 41.46 2.39453 41.7822 2.39453C42.1533 2.39453 42.4674 2.47266 42.7246 2.62891C42.985 2.78516 43.1787 3.00163 43.3057 3.27832C43.6768 2.96582 44.0153 2.74121 44.3213 2.60449C44.6273 2.46452 44.9544 2.39453 45.3027 2.39453C45.9017 2.39453 46.3428 2.57682 46.626 2.94141C46.9124 3.30273 47.0557 3.80892 47.0557 4.45996V8ZM53.3887 5.36816H49.3701C49.3701 5.70345 49.4206 5.99642 49.5215 6.24707C49.6224 6.49447 49.7607 6.69792 49.9365 6.85742C50.1058 7.01367 50.306 7.13086 50.5371 7.20898C50.7715 7.28711 51.0286 7.32617 51.3086 7.32617C51.6797 7.32617 52.0524 7.25293 52.4268 7.10645C52.8044 6.95671 53.0729 6.81022 53.2324 6.66699H53.2812V7.66797C52.972 7.79818 52.6562 7.90723 52.334 7.99512C52.0117 8.08301 51.6732 8.12695 51.3184 8.12695C50.4134 8.12695 49.707 7.88281 49.1992 7.39453C48.6914 6.90299 48.4375 6.20638 48.4375 5.30469C48.4375 4.41276 48.68 3.70475 49.165 3.18066C49.6533 2.65658 50.2946 2.39453 51.0889 2.39453C51.8245 2.39453 52.391 2.60938 52.7881 3.03906C53.1885 3.46875 53.3887 4.0791 53.3887 4.87012V5.36816ZM52.4951 4.66504C52.4919 4.18327 52.3698 3.81055 52.1289 3.54688C51.8913 3.2832 51.5283 3.15137 51.04 3.15137C50.5485 3.15137 50.1562 3.29622 49.8633 3.58594C49.5736 3.87565 49.4092 4.23535 49.3701 4.66504H52.4951ZM62.9443 5.27539C62.9443 6.16406 62.7165 6.86556 62.2607 7.37988C61.805 7.89421 61.1947 8.15137 60.4297 8.15137C59.6582 8.15137 59.0446 7.89421 58.5889 7.37988C58.1364 6.86556 57.9102 6.16406 57.9102 5.27539C57.9102 4.38672 58.1364 3.68522 58.5889 3.1709C59.0446 2.65332 59.6582 2.39453 60.4297 2.39453C61.1947 2.39453 61.805 2.65332 62.2607 3.1709C62.7165 3.68522 62.9443 4.38672 62.9443 5.27539ZM61.9971 5.27539C61.9971 4.56901 61.8587 4.04492 61.582 3.70312C61.3053 3.35807 60.9212 3.18555 60.4297 3.18555C59.9316 3.18555 59.5443 3.35807 59.2676 3.70312C58.9941 4.04492 58.8574 4.56901 58.8574 5.27539C58.8574 5.95898 58.9958 6.47819 59.2725 6.83301C59.5492 7.18457 59.9349 7.36035 60.4297 7.36035C60.918 7.36035 61.3005 7.1862 61.5771 6.83789C61.8571 6.48633 61.9971 5.96549 61.9971 5.27539ZM67.3047 1.29102H67.2559C67.1549 1.26172 67.0231 1.23242 66.8604 1.20312C66.6976 1.17057 66.5544 1.1543 66.4307 1.1543C66.0368 1.1543 65.7503 1.24219 65.5713 1.41797C65.3955 1.59049 65.3076 1.90462 65.3076 2.36035V2.5459H66.9629V3.31738H65.3369V8H64.4189V3.31738H63.7988V2.5459H64.4189V2.36523C64.4189 1.71745 64.5801 1.22103 64.9023 0.875977C65.2246 0.527669 65.6901 0.353516 66.2988 0.353516C66.5039 0.353516 66.6878 0.363281 66.8506 0.382812C67.0166 0.402344 67.168 0.42513 67.3047 0.451172V1.29102ZM74.2334 7.95117C74.0609 7.99674 73.8721 8.03418 73.667 8.06348C73.4652 8.09277 73.2845 8.10742 73.125 8.10742C72.5684 8.10742 72.1452 7.95768 71.8555 7.6582C71.5658 7.35872 71.4209 6.87858 71.4209 6.21777V3.31738H70.8008V2.5459H71.4209V0.978516H72.3389V2.5459H74.2334V3.31738H72.3389V5.80273C72.3389 6.08919 72.3454 6.3138 72.3584 6.47656C72.3714 6.63607 72.417 6.78581 72.4951 6.92578C72.5667 7.05599 72.6644 7.15202 72.7881 7.21387C72.915 7.27246 73.1071 7.30176 73.3643 7.30176C73.514 7.30176 73.6702 7.2806 73.833 7.23828C73.9958 7.19271 74.113 7.15527 74.1846 7.12598H74.2334V7.95117ZM79.9072 8H78.9893V4.89453C78.9893 4.64388 78.9746 4.40951 78.9453 4.19141C78.916 3.97005 78.8623 3.79753 78.7842 3.67383C78.7028 3.53711 78.5856 3.4362 78.4326 3.37109C78.2796 3.30273 78.0811 3.26855 77.8369 3.26855C77.5863 3.26855 77.3242 3.3304 77.0508 3.4541C76.7773 3.5778 76.5153 3.73568 76.2646 3.92773V8H75.3467V0.402344H76.2646V3.15137C76.5511 2.91374 76.8473 2.72819 77.1533 2.59473C77.4593 2.46126 77.7734 2.39453 78.0957 2.39453C78.6849 2.39453 79.1341 2.57194 79.4434 2.92676C79.7526 3.28158 79.9072 3.79264 79.9072 4.45996V8ZM86.2402 5.36816H82.2217C82.2217 5.70345 82.2721 5.99642 82.373 6.24707C82.474 6.49447 82.6123 6.69792 82.7881 6.85742C82.9574 7.01367 83.1576 7.13086 83.3887 7.20898C83.623 7.28711 83.8802 7.32617 84.1602 7.32617C84.5312 7.32617 84.904 7.25293 85.2783 7.10645C85.6559 6.95671 85.9245 6.81022 86.084 6.66699H86.1328V7.66797C85.8236 7.79818 85.5078 7.90723 85.1855 7.99512C84.8633 8.08301 84.5247 8.12695 84.1699 8.12695C83.265 8.12695 82.5586 7.88281 82.0508 7.39453C81.543 6.90299 81.2891 6.20638 81.2891 5.30469C81.2891 4.41276 81.5316 3.70475 82.0166 3.18066C82.5049 2.65658 83.1462 2.39453 83.9404 2.39453C84.6761 2.39453 85.2425 2.60938 85.6396 3.03906C86.04 3.46875 86.2402 4.0791 86.2402 4.87012V5.36816ZM85.3467 4.66504C85.3434 4.18327 85.2214 3.81055 84.9805 3.54688C84.7428 3.2832 84.3799 3.15137 83.8916 3.15137C83.4001 3.15137 83.0078 3.29622 82.7148 3.58594C82.4251 3.87565 82.2607 4.23535 82.2217 4.66504H85.3467ZM95.5713 8H94.6533V7.42871C94.3896 7.65658 94.1146 7.83398 93.8281 7.96094C93.5417 8.08789 93.2308 8.15137 92.8955 8.15137C92.2445 8.15137 91.7269 7.90072 91.3428 7.39941C90.9619 6.89811 90.7715 6.20312 90.7715 5.31445C90.7715 4.85221 90.8366 4.44043 90.9668 4.0791C91.1003 3.71777 91.2793 3.41016 91.5039 3.15625C91.7253 2.90885 91.9824 2.72005 92.2754 2.58984C92.5716 2.45964 92.8776 2.39453 93.1934 2.39453C93.4798 2.39453 93.7337 2.42546 93.9551 2.4873C94.1764 2.5459 94.4092 2.63867 94.6533 2.76562V0.402344H95.5713V8ZM94.6533 6.65723V3.52734C94.4059 3.41667 94.1846 3.34017 93.9893 3.29785C93.7939 3.25553 93.5807 3.23438 93.3496 3.23438C92.8353 3.23438 92.4349 3.41341 92.1484 3.77148C91.862 4.12956 91.7188 4.63737 91.7188 5.29492C91.7188 5.94271 91.8294 6.43587 92.0508 6.77441C92.2721 7.1097 92.627 7.27734 93.1152 7.27734C93.3757 7.27734 93.6393 7.22038 93.9062 7.10645C94.1732 6.98926 94.4222 6.83952 94.6533 6.65723ZM102.026 5.27539C102.026 6.16406 101.799 6.86556 101.343 7.37988C100.887 7.89421 100.277 8.15137 99.5117 8.15137C98.7402 8.15137 98.1266 7.89421 97.6709 7.37988C97.2184 6.86556 96.9922 6.16406 96.9922 5.27539C96.9922 4.38672 97.2184 3.68522 97.6709 3.1709C98.1266 2.65332 98.7402 2.39453 99.5117 2.39453C100.277 2.39453 100.887 2.65332 101.343 3.1709C101.799 3.68522 102.026 4.38672 102.026 5.27539ZM101.079 5.27539C101.079 4.56901 100.941 4.04492 100.664 3.70312C100.387 3.35807 100.003 3.18555 99.5117 3.18555C99.0137 3.18555 98.6263 3.35807 98.3496 3.70312C98.0762 4.04492 97.9395 4.56901 97.9395 5.27539C97.9395 5.95898 98.0778 6.47819 98.3545 6.83301C98.6312 7.18457 99.0169 7.36035 99.5117 7.36035C100 7.36035 100.382 7.1862 100.659 6.83789C100.939 6.48633 101.079 5.96549 101.079 5.27539ZM107.485 7.6582C107.179 7.80469 106.888 7.91862 106.611 8C106.338 8.08138 106.047 8.12207 105.737 8.12207C105.343 8.12207 104.982 8.0651 104.653 7.95117C104.325 7.83398 104.043 7.6582 103.809 7.42383C103.571 7.18945 103.387 6.89323 103.257 6.53516C103.127 6.17708 103.062 5.75879 103.062 5.28027C103.062 4.38835 103.306 3.68848 103.794 3.18066C104.285 2.67285 104.933 2.41895 105.737 2.41895C106.05 2.41895 106.356 2.46289 106.655 2.55078C106.958 2.63867 107.235 2.74609 107.485 2.87305V3.89355H107.437C107.157 3.67546 106.867 3.50781 106.567 3.39062C106.271 3.27344 105.981 3.21484 105.698 3.21484C105.177 3.21484 104.766 3.39062 104.463 3.74219C104.163 4.09049 104.014 4.60319 104.014 5.28027C104.014 5.93783 104.16 6.44401 104.453 6.79883C104.749 7.15039 105.164 7.32617 105.698 7.32617C105.884 7.32617 106.073 7.30176 106.265 7.25293C106.457 7.2041 106.629 7.14062 106.782 7.0625C106.916 6.99414 107.041 6.92253 107.158 6.84766C107.275 6.76953 107.368 6.7028 107.437 6.64746H107.485V7.6582ZM113.188 8H112.271V7.39453C111.961 7.63867 111.665 7.82585 111.382 7.95605C111.099 8.08626 110.786 8.15137 110.444 8.15137C109.871 8.15137 109.425 7.97721 109.106 7.62891C108.787 7.27734 108.628 6.76302 108.628 6.08594V2.5459H109.546V5.65137C109.546 5.92806 109.559 6.16569 109.585 6.36426C109.611 6.55957 109.666 6.72721 109.751 6.86719C109.839 7.01042 109.953 7.11458 110.093 7.17969C110.233 7.24479 110.436 7.27734 110.703 7.27734C110.941 7.27734 111.2 7.21549 111.479 7.0918C111.763 6.9681 112.026 6.81022 112.271 6.61816V2.5459H113.188V8ZM122.954 8H122.036V4.89453C122.036 4.66016 122.025 4.43392 122.002 4.21582C121.982 3.99772 121.938 3.82357 121.87 3.69336C121.795 3.55339 121.688 3.44759 121.548 3.37598C121.408 3.30436 121.206 3.26855 120.942 3.26855C120.685 3.26855 120.428 3.33366 120.171 3.46387C119.914 3.59082 119.657 3.75358 119.399 3.95215C119.409 4.02702 119.417 4.11491 119.424 4.21582C119.43 4.31348 119.434 4.41113 119.434 4.50879V8H118.516V4.89453C118.516 4.65365 118.504 4.42578 118.481 4.21094C118.462 3.99284 118.418 3.81868 118.35 3.68848C118.275 3.5485 118.167 3.44434 118.027 3.37598C117.887 3.30436 117.686 3.26855 117.422 3.26855C117.171 3.26855 116.919 3.3304 116.665 3.4541C116.414 3.5778 116.164 3.73568 115.913 3.92773V8H114.995V2.5459H115.913V3.15137C116.2 2.91374 116.484 2.72819 116.768 2.59473C117.054 2.46126 117.358 2.39453 117.681 2.39453C118.052 2.39453 118.366 2.47266 118.623 2.62891C118.883 2.78516 119.077 3.00163 119.204 3.27832C119.575 2.96582 119.914 2.74121 120.22 2.60449C120.526 2.46452 120.853 2.39453 121.201 2.39453C121.8 2.39453 122.241 2.57682 122.524 2.94141C122.811 3.30273 122.954 3.80892 122.954 4.45996V8ZM129.287 5.36816H125.269C125.269 5.70345 125.319 5.99642 125.42 6.24707C125.521 6.49447 125.659 6.69792 125.835 6.85742C126.004 7.01367 126.204 7.13086 126.436 7.20898C126.67 7.28711 126.927 7.32617 127.207 7.32617C127.578 7.32617 127.951 7.25293 128.325 7.10645C128.703 6.95671 128.971 6.81022 129.131 6.66699H129.18V7.66797C128.87 7.79818 128.555 7.90723 128.232 7.99512C127.91 8.08301 127.572 8.12695 127.217 8.12695C126.312 8.12695 125.605 7.88281 125.098 7.39453C124.59 6.90299 124.336 6.20638 124.336 5.30469C124.336 4.41276 124.578 3.70475 125.063 3.18066C125.552 2.65658 126.193 2.39453 126.987 2.39453C127.723 2.39453 128.289 2.60938 128.687 3.03906C129.087 3.46875 129.287 4.0791 129.287 4.87012V5.36816ZM128.394 4.66504C128.39 4.18327 128.268 3.81055 128.027 3.54688C127.79 3.2832 127.427 3.15137 126.938 3.15137C126.447 3.15137 126.055 3.29622 125.762 3.58594C125.472 3.87565 125.308 4.23535 125.269 4.66504H128.394ZM135.239 8H134.321V4.89453C134.321 4.64388 134.307 4.40951 134.277 4.19141C134.248 3.97005 134.194 3.79753 134.116 3.67383C134.035 3.53711 133.918 3.4362 133.765 3.37109C133.612 3.30273 133.413 3.26855 133.169 3.26855C132.918 3.26855 132.656 3.3304 132.383 3.4541C132.109 3.5778 131.847 3.73568 131.597 3.92773V8H130.679V2.5459H131.597V3.15137C131.883 2.91374 132.179 2.72819 132.485 2.59473C132.791 2.46126 133.105 2.39453 133.428 2.39453C134.017 2.39453 134.466 2.57194 134.775 2.92676C135.085 3.28158 135.239 3.79264 135.239 4.45996V8ZM139.839 7.95117C139.666 7.99674 139.478 8.03418 139.272 8.06348C139.071 8.09277 138.89 8.10742 138.73 8.10742C138.174 8.10742 137.751 7.95768 137.461 7.6582C137.171 7.35872 137.026 6.87858 137.026 6.21777V3.31738H136.406V2.5459H137.026V0.978516H137.944V2.5459H139.839V3.31738H137.944V5.80273C137.944 6.08919 137.951 6.3138 137.964 6.47656C137.977 6.63607 138.022 6.78581 138.101 6.92578C138.172 7.05599 138.27 7.15202 138.394 7.21387C138.521 7.27246 138.713 7.30176 138.97 7.30176C139.119 7.30176 139.276 7.2806 139.438 7.23828C139.601 7.19271 139.718 7.15527 139.79 7.12598H139.839V7.95117ZM145.19 8H144.277V7.41895C144.196 7.47428 144.085 7.55241 143.945 7.65332C143.809 7.75098 143.675 7.8291 143.545 7.8877C143.392 7.96257 143.216 8.02441 143.018 8.07324C142.819 8.12533 142.586 8.15137 142.319 8.15137C141.828 8.15137 141.411 7.98861 141.069 7.66309C140.728 7.33757 140.557 6.92253 140.557 6.41797C140.557 6.00456 140.645 5.6709 140.82 5.41699C140.999 5.15983 141.253 4.95801 141.582 4.81152C141.914 4.66504 142.313 4.56576 142.778 4.51367C143.244 4.46159 143.743 4.42253 144.277 4.39648V4.25488C144.277 4.04655 144.24 3.87402 144.165 3.7373C144.093 3.60059 143.989 3.49316 143.853 3.41504C143.722 3.34017 143.566 3.28971 143.384 3.26367C143.201 3.23763 143.011 3.22461 142.812 3.22461C142.572 3.22461 142.303 3.25716 142.007 3.32227C141.711 3.38411 141.405 3.47526 141.089 3.5957H141.04V2.66309C141.219 2.61426 141.478 2.56055 141.816 2.50195C142.155 2.44336 142.489 2.41406 142.817 2.41406C143.201 2.41406 143.535 2.44661 143.818 2.51172C144.105 2.57357 144.352 2.68099 144.561 2.83398C144.766 2.98372 144.922 3.17741 145.029 3.41504C145.137 3.65267 145.19 3.94727 145.19 4.29883V8ZM144.277 6.65723V5.13867C143.997 5.15495 143.667 5.17936 143.286 5.21191C142.909 5.24447 142.609 5.29167 142.388 5.35352C142.124 5.42839 141.911 5.54557 141.748 5.70508C141.585 5.86133 141.504 6.0778 141.504 6.35449C141.504 6.66699 141.598 6.90299 141.787 7.0625C141.976 7.21875 142.264 7.29688 142.651 7.29688C142.974 7.29688 143.268 7.23503 143.535 7.11133C143.802 6.98438 144.049 6.83301 144.277 6.65723ZM150.361 3.54688H150.312C150.176 3.51432 150.042 3.49154 149.912 3.47852C149.785 3.46224 149.634 3.4541 149.458 3.4541C149.175 3.4541 148.901 3.51758 148.638 3.64453C148.374 3.76823 148.12 3.92936 147.876 4.12793V8H146.958V2.5459H147.876V3.35156C148.241 3.05859 148.561 2.85189 148.838 2.73145C149.118 2.60775 149.403 2.5459 149.692 2.5459C149.852 2.5459 149.967 2.55078 150.039 2.56055C150.111 2.56706 150.218 2.58171 150.361 2.60449V3.54688ZM155.942 2.5459L152.759 10.0117H151.777L152.793 7.73633L150.62 2.5459H151.616L153.291 6.58887L154.98 2.5459H155.942Z" fill="black"/>
</svg>
