<svg width="125" height="11" viewBox="0 0 125 11" fill="none" xmlns="http://www.w3.org/2000/svg">
<path d="M6.70898 8H5.67871L4.96582 5.97363H1.82129L1.1084 8H0.126953L2.77344 0.729492H4.0625L6.70898 8ZM4.66797 5.14355L3.39355 1.57422L2.11426 5.14355H4.66797ZM12.5391 5.23145C12.5391 5.68717 12.474 6.09733 12.3438 6.46191C12.2168 6.8265 12.0443 7.13249 11.8262 7.37988C11.5951 7.63704 11.3411 7.83073 11.0645 7.96094C10.7878 8.08789 10.4834 8.15137 10.1514 8.15137C9.84212 8.15137 9.57194 8.11393 9.34082 8.03906C9.1097 7.96745 8.88184 7.86979 8.65723 7.74609L8.59863 8H7.73926V0.402344H8.65723V3.11719C8.91439 2.9056 9.18783 2.73307 9.47754 2.59961C9.76725 2.46289 10.0928 2.39453 10.4541 2.39453C11.0986 2.39453 11.6064 2.64193 11.9775 3.13672C12.3519 3.63151 12.5391 4.32975 12.5391 5.23145ZM11.5918 5.25586C11.5918 4.60482 11.4844 4.11165 11.2695 3.77637C11.0547 3.43783 10.708 3.26855 10.2295 3.26855C9.96257 3.26855 9.69238 3.32715 9.41895 3.44434C9.14551 3.55827 8.8916 3.70638 8.65723 3.88867V7.01367C8.91764 7.13086 9.14062 7.21224 9.32617 7.25781C9.51497 7.30339 9.72819 7.32617 9.96582 7.32617C10.4736 7.32617 10.8708 7.16016 11.1572 6.82812C11.4469 6.49284 11.5918 5.96875 11.5918 5.25586ZM18.6182 5.27539C18.6182 6.16406 18.3903 6.86556 17.9346 7.37988C17.4788 7.89421 16.8685 8.15137 16.1035 8.15137C15.332 8.15137 14.7184 7.89421 14.2627 7.37988C13.8102 6.86556 13.584 6.16406 13.584 5.27539C13.584 4.38672 13.8102 3.68522 14.2627 3.1709C14.7184 2.65332 15.332 2.39453 16.1035 2.39453C16.8685 2.39453 17.4788 2.65332 17.9346 3.1709C18.3903 3.68522 18.6182 4.38672 18.6182 5.27539ZM17.6709 5.27539C17.6709 4.56901 17.5326 4.04492 17.2559 3.70312C16.9792 3.35807 16.5951 3.18555 16.1035 3.18555C15.6055 3.18555 15.2181 3.35807 14.9414 3.70312C14.668 4.04492 14.5312 4.56901 14.5312 5.27539C14.5312 5.95898 14.6696 6.47819 14.9463 6.83301C15.223 7.18457 15.6087 7.36035 16.1035 7.36035C16.5918 7.36035 16.9743 7.1862 17.251 6.83789C17.5309 6.48633 17.6709 5.96549 17.6709 5.27539ZM24.5654 8H23.6475V7.39453C23.3382 7.63867 23.042 7.82585 22.7588 7.95605C22.4756 8.08626 22.1631 8.15137 21.8213 8.15137C21.2484 8.15137 20.8024 7.97721 20.4834 7.62891C20.1644 7.27734 20.0049 6.76302 20.0049 6.08594V2.5459H20.9229V5.65137C20.9229 5.92806 20.9359 6.16569 20.9619 6.36426C20.988 6.55957 21.0433 6.72721 21.1279 6.86719C21.2158 7.01042 21.3298 7.11458 21.4697 7.17969C21.6097 7.24479 21.8132 7.27734 22.0801 7.27734C22.3177 7.27734 22.5765 7.21549 22.8564 7.0918C23.1396 6.9681 23.4033 6.81022 23.6475 6.61816V2.5459H24.5654V8ZM29.2041 7.95117C29.0316 7.99674 28.8428 8.03418 28.6377 8.06348C28.4359 8.09277 28.2552 8.10742 28.0957 8.10742C27.5391 8.10742 27.1159 7.95768 26.8262 7.6582C26.5365 7.35872 26.3916 6.87858 26.3916 6.21777V3.31738H25.7715V2.5459H26.3916V0.978516H27.3096V2.5459H29.2041V3.31738H27.3096V5.80273C27.3096 6.08919 27.3161 6.3138 27.3291 6.47656C27.3421 6.63607 27.3877 6.78581 27.4658 6.92578C27.5374 7.05599 27.6351 7.15202 27.7588 7.21387C27.8857 7.27246 28.0778 7.30176 28.335 7.30176C28.4847 7.30176 28.641 7.2806 28.8037 7.23828C28.9665 7.19271 29.0837 7.15527 29.1553 7.12598H29.2041V7.95117ZM38.3545 8H37.4365V7.39453C37.1273 7.63867 36.8311 7.82585 36.5479 7.95605C36.2646 8.08626 35.9521 8.15137 35.6104 8.15137C35.0374 8.15137 34.5915 7.97721 34.2725 7.62891C33.9535 7.27734 33.7939 6.76302 33.7939 6.08594V2.5459H34.7119V5.65137C34.7119 5.92806 34.7249 6.16569 34.751 6.36426C34.777 6.55957 34.8324 6.72721 34.917 6.86719C35.0049 7.01042 35.1188 7.11458 35.2588 7.17969C35.3988 7.24479 35.6022 7.27734 35.8691 7.27734C36.1068 7.27734 36.3656 7.21549 36.6455 7.0918C36.9287 6.9681 37.1924 6.81022 37.4365 6.61816V2.5459H38.3545V8ZM44.0576 6.42773C44.0576 6.92578 43.8509 7.33431 43.4375 7.65332C43.0273 7.97233 42.4658 8.13184 41.7529 8.13184C41.3493 8.13184 40.9782 8.08464 40.6396 7.99023C40.3044 7.89258 40.0228 7.78678 39.7949 7.67285V6.64258H39.8438C40.1335 6.86068 40.4557 7.03483 40.8105 7.16504C41.1654 7.29199 41.5055 7.35547 41.8311 7.35547C42.2347 7.35547 42.5505 7.29036 42.7783 7.16016C43.0062 7.02995 43.1201 6.82487 43.1201 6.54492C43.1201 6.33008 43.0583 6.16732 42.9346 6.05664C42.8109 5.94596 42.5732 5.85156 42.2217 5.77344C42.0915 5.74414 41.9206 5.70996 41.709 5.6709C41.5007 5.63184 41.3102 5.58952 41.1377 5.54395C40.6592 5.41699 40.319 5.23145 40.1172 4.9873C39.9186 4.73991 39.8193 4.43717 39.8193 4.0791C39.8193 3.85449 39.8649 3.6429 39.9561 3.44434C40.0505 3.24577 40.1921 3.06836 40.3809 2.91211C40.5632 2.75911 40.7943 2.63867 41.0742 2.55078C41.3574 2.45964 41.6732 2.41406 42.0215 2.41406C42.347 2.41406 42.6758 2.45475 43.0078 2.53613C43.3431 2.61426 43.6214 2.71029 43.8428 2.82422V3.80566H43.7939C43.5596 3.63314 43.2747 3.48828 42.9395 3.37109C42.6042 3.25065 42.2754 3.19043 41.9531 3.19043C41.6178 3.19043 41.3346 3.25553 41.1035 3.38574C40.8724 3.5127 40.7568 3.70312 40.7568 3.95703C40.7568 4.18164 40.8268 4.35091 40.9668 4.46484C41.1035 4.57878 41.3249 4.67155 41.6309 4.74316C41.8001 4.78223 41.9889 4.82129 42.1973 4.86035C42.4089 4.89941 42.5846 4.93522 42.7246 4.96777C43.151 5.06543 43.4798 5.23307 43.7109 5.4707C43.9421 5.71159 44.0576 6.0306 44.0576 6.42773ZM53.1299 8H52.2168V7.41895C52.1354 7.47428 52.0247 7.55241 51.8848 7.65332C51.748 7.75098 51.6146 7.8291 51.4844 7.8877C51.3314 7.96257 51.1556 8.02441 50.957 8.07324C50.7585 8.12533 50.5257 8.15137 50.2588 8.15137C49.7673 8.15137 49.3506 7.98861 49.0088 7.66309C48.667 7.33757 48.4961 6.92253 48.4961 6.41797C48.4961 6.00456 48.584 5.6709 48.7598 5.41699C48.9388 5.15983 49.1927 4.95801 49.5215 4.81152C49.8535 4.66504 50.2523 4.56576 50.7178 4.51367C51.1833 4.46159 51.6829 4.42253 52.2168 4.39648V4.25488C52.2168 4.04655 52.1794 3.87402 52.1045 3.7373C52.0329 3.60059 51.9287 3.49316 51.792 3.41504C51.6618 3.34017 51.5055 3.28971 51.3232 3.26367C51.141 3.23763 50.9505 3.22461 50.752 3.22461C50.5111 3.22461 50.2425 3.25716 49.9463 3.32227C49.6501 3.38411 49.3441 3.47526 49.0283 3.5957H48.9795V2.66309C49.1585 2.61426 49.4173 2.56055 49.7559 2.50195C50.0944 2.44336 50.4281 2.41406 50.7568 2.41406C51.141 2.41406 51.4746 2.44661 51.7578 2.51172C52.0443 2.57357 52.2917 2.68099 52.5 2.83398C52.7051 2.98372 52.8613 3.17741 52.9688 3.41504C53.0762 3.65267 53.1299 3.94727 53.1299 4.29883V8ZM52.2168 6.65723V5.13867C51.9368 5.15495 51.6064 5.17936 51.2256 5.21191C50.848 5.24447 50.5485 5.29167 50.3271 5.35352C50.0635 5.42839 49.8503 5.54557 49.6875 5.70508C49.5247 5.86133 49.4434 6.0778 49.4434 6.35449C49.4434 6.66699 49.5378 6.90299 49.7266 7.0625C49.9154 7.21875 50.2035 7.29688 50.5908 7.29688C50.9131 7.29688 51.2077 7.23503 51.4746 7.11133C51.7415 6.98438 51.9889 6.83301 52.2168 6.65723ZM59.458 8H58.54V4.89453C58.54 4.64388 58.5254 4.40951 58.4961 4.19141C58.4668 3.97005 58.4131 3.79753 58.335 3.67383C58.2536 3.53711 58.1364 3.4362 57.9834 3.37109C57.8304 3.30273 57.6318 3.26855 57.3877 3.26855C57.137 3.26855 56.875 3.3304 56.6016 3.4541C56.3281 3.5778 56.0661 3.73568 55.8154 3.92773V8H54.8975V2.5459H55.8154V3.15137C56.1019 2.91374 56.3981 2.72819 56.7041 2.59473C57.0101 2.46126 57.3242 2.39453 57.6465 2.39453C58.2357 2.39453 58.6849 2.57194 58.9941 2.92676C59.3034 3.28158 59.458 3.79264 59.458 4.45996V8ZM65.6494 8H64.7314V7.42871C64.4678 7.65658 64.1927 7.83398 63.9062 7.96094C63.6198 8.08789 63.3089 8.15137 62.9736 8.15137C62.3226 8.15137 61.805 7.90072 61.4209 7.39941C61.04 6.89811 60.8496 6.20312 60.8496 5.31445C60.8496 4.85221 60.9147 4.44043 61.0449 4.0791C61.1784 3.71777 61.3574 3.41016 61.582 3.15625C61.8034 2.90885 62.0605 2.72005 62.3535 2.58984C62.6497 2.45964 62.9557 2.39453 63.2715 2.39453C63.5579 2.39453 63.8118 2.42546 64.0332 2.4873C64.2546 2.5459 64.4873 2.63867 64.7314 2.76562V0.402344H65.6494V8ZM64.7314 6.65723V3.52734C64.484 3.41667 64.2627 3.34017 64.0674 3.29785C63.8721 3.25553 63.6589 3.23438 63.4277 3.23438C62.9134 3.23438 62.513 3.41341 62.2266 3.77148C61.9401 4.12956 61.7969 4.63737 61.7969 5.29492C61.7969 5.94271 61.9076 6.43587 62.1289 6.77441C62.3503 7.1097 62.7051 7.27734 63.1934 7.27734C63.4538 7.27734 63.7174 7.22038 63.9844 7.10645C64.2513 6.98926 64.5003 6.83952 64.7314 6.65723ZM73.8037 7.95117C73.6312 7.99674 73.4424 8.03418 73.2373 8.06348C73.0355 8.09277 72.8548 8.10742 72.6953 8.10742C72.1387 8.10742 71.7155 7.95768 71.4258 7.6582C71.1361 7.35872 70.9912 6.87858 70.9912 6.21777V3.31738H70.3711V2.5459H70.9912V0.978516H71.9092V2.5459H73.8037V3.31738H71.9092V5.80273C71.9092 6.08919 71.9157 6.3138 71.9287 6.47656C71.9417 6.63607 71.9873 6.78581 72.0654 6.92578C72.137 7.05599 72.2347 7.15202 72.3584 7.21387C72.4854 7.27246 72.6774 7.30176 72.9346 7.30176C73.0843 7.30176 73.2406 7.2806 73.4033 7.23828C73.5661 7.19271 73.6833 7.15527 73.7549 7.12598H73.8037V7.95117ZM79.4775 8H78.5596V4.89453C78.5596 4.64388 78.5449 4.40951 78.5156 4.19141C78.4863 3.97005 78.4326 3.79753 78.3545 3.67383C78.2731 3.53711 78.1559 3.4362 78.0029 3.37109C77.8499 3.30273 77.6514 3.26855 77.4072 3.26855C77.1566 3.26855 76.8945 3.3304 76.6211 3.4541C76.3477 3.5778 76.0856 3.73568 75.835 3.92773V8H74.917V0.402344H75.835V3.15137C76.1214 2.91374 76.4176 2.72819 76.7236 2.59473C77.0296 2.46126 77.3438 2.39453 77.666 2.39453C78.2552 2.39453 78.7044 2.57194 79.0137 2.92676C79.3229 3.28158 79.4775 3.79264 79.4775 4.45996V8ZM85.8105 5.36816H81.792C81.792 5.70345 81.8424 5.99642 81.9434 6.24707C82.0443 6.49447 82.1826 6.69792 82.3584 6.85742C82.5277 7.01367 82.7279 7.13086 82.959 7.20898C83.1934 7.28711 83.4505 7.32617 83.7305 7.32617C84.1016 7.32617 84.4743 7.25293 84.8486 7.10645C85.2262 6.95671 85.4948 6.81022 85.6543 6.66699H85.7031V7.66797C85.3939 7.79818 85.0781 7.90723 84.7559 7.99512C84.4336 8.08301 84.0951 8.12695 83.7402 8.12695C82.8353 8.12695 82.1289 7.88281 81.6211 7.39453C81.1133 6.90299 80.8594 6.20638 80.8594 5.30469C80.8594 4.41276 81.1019 3.70475 81.5869 3.18066C82.0752 2.65658 82.7165 2.39453 83.5107 2.39453C84.2464 2.39453 84.8128 2.60938 85.21 3.03906C85.6104 3.46875 85.8105 4.0791 85.8105 4.87012V5.36816ZM84.917 4.66504C84.9137 4.18327 84.7917 3.81055 84.5508 3.54688C84.3132 3.2832 83.9502 3.15137 83.4619 3.15137C82.9704 3.15137 82.5781 3.29622 82.2852 3.58594C81.9954 3.87565 81.8311 4.23535 81.792 4.66504H84.917ZM95.5176 5.20703C95.5176 5.64974 95.4541 6.05501 95.3271 6.42285C95.2002 6.78743 95.0212 7.09668 94.79 7.35059C94.5752 7.59147 94.3213 7.77865 94.0283 7.91211C93.7386 8.04232 93.431 8.10742 93.1055 8.10742C92.8223 8.10742 92.5651 8.0765 92.334 8.01465C92.1061 7.9528 91.8734 7.85677 91.6357 7.72656V10.0117H90.7178V2.5459H91.6357V3.11719C91.8799 2.91211 92.1533 2.74121 92.4561 2.60449C92.762 2.46452 93.0876 2.39453 93.4326 2.39453C94.0902 2.39453 94.6012 2.64355 94.9658 3.1416C95.3337 3.63639 95.5176 4.32487 95.5176 5.20703ZM94.5703 5.23145C94.5703 4.57389 94.458 4.08236 94.2334 3.75684C94.0088 3.43132 93.6637 3.26855 93.1982 3.26855C92.9346 3.26855 92.6693 3.32552 92.4023 3.43945C92.1354 3.55339 91.8799 3.70312 91.6357 3.88867V6.97949C91.8962 7.09668 92.1191 7.17643 92.3047 7.21875C92.4935 7.26107 92.7067 7.28223 92.9443 7.28223C93.4554 7.28223 93.8542 7.1097 94.1406 6.76465C94.4271 6.4196 94.5703 5.90853 94.5703 5.23145ZM100.352 3.54688H100.303C100.166 3.51432 100.033 3.49154 99.9023 3.47852C99.7754 3.46224 99.624 3.4541 99.4482 3.4541C99.165 3.4541 98.8916 3.51758 98.6279 3.64453C98.3643 3.76823 98.1104 3.92936 97.8662 4.12793V8H96.9482V2.5459H97.8662V3.35156C98.2308 3.05859 98.5514 2.85189 98.8281 2.73145C99.1081 2.60775 99.3929 2.5459 99.6826 2.5459C99.8421 2.5459 99.9577 2.55078 100.029 2.56055C100.101 2.56706 100.208 2.58171 100.352 2.60449V3.54688ZM105.864 5.27539C105.864 6.16406 105.636 6.86556 105.181 7.37988C104.725 7.89421 104.115 8.15137 103.35 8.15137C102.578 8.15137 101.965 7.89421 101.509 7.37988C101.056 6.86556 100.83 6.16406 100.83 5.27539C100.83 4.38672 101.056 3.68522 101.509 3.1709C101.965 2.65332 102.578 2.39453 103.35 2.39453C104.115 2.39453 104.725 2.65332 105.181 3.1709C105.636 3.68522 105.864 4.38672 105.864 5.27539ZM104.917 5.27539C104.917 4.56901 104.779 4.04492 104.502 3.70312C104.225 3.35807 103.841 3.18555 103.35 3.18555C102.852 3.18555 102.464 3.35807 102.188 3.70312C101.914 4.04492 101.777 4.56901 101.777 5.27539C101.777 5.95898 101.916 6.47819 102.192 6.83301C102.469 7.18457 102.855 7.36035 103.35 7.36035C103.838 7.36035 104.22 7.1862 104.497 6.83789C104.777 6.48633 104.917 5.96549 104.917 5.27539ZM108.989 1.63281H107.954V0.680664H108.989V1.63281ZM108.931 8.13184C108.931 8.76986 108.768 9.25163 108.442 9.57715C108.117 9.90267 107.681 10.0654 107.134 10.0654C107.004 10.0654 106.831 10.0524 106.616 10.0264C106.405 10.0003 106.227 9.96777 106.084 9.92871V9.05469H106.133C106.224 9.09049 106.346 9.13118 106.499 9.17676C106.655 9.22233 106.807 9.24512 106.953 9.24512C107.188 9.24512 107.376 9.21257 107.52 9.14746C107.663 9.08236 107.77 8.9847 107.842 8.85449C107.913 8.72428 107.959 8.56641 107.979 8.38086C108.001 8.19857 108.013 7.97559 108.013 7.71191V3.31738H106.875V2.5459H108.931V8.13184ZM115.303 5.36816H111.284C111.284 5.70345 111.335 5.99642 111.436 6.24707C111.536 6.49447 111.675 6.69792 111.851 6.85742C112.02 7.01367 112.22 7.13086 112.451 7.20898C112.686 7.28711 112.943 7.32617 113.223 7.32617C113.594 7.32617 113.966 7.25293 114.341 7.10645C114.718 6.95671 114.987 6.81022 115.146 6.66699H115.195V7.66797C114.886 7.79818 114.57 7.90723 114.248 7.99512C113.926 8.08301 113.587 8.12695 113.232 8.12695C112.327 8.12695 111.621 7.88281 111.113 7.39453C110.605 6.90299 110.352 6.20638 110.352 5.30469C110.352 4.41276 110.594 3.70475 111.079 3.18066C111.567 2.65658 112.209 2.39453 113.003 2.39453C113.739 2.39453 114.305 2.60938 114.702 3.03906C115.103 3.46875 115.303 4.0791 115.303 4.87012V5.36816ZM114.409 4.66504C114.406 4.18327 114.284 3.81055 114.043 3.54688C113.805 3.2832 113.442 3.15137 112.954 3.15137C112.463 3.15137 112.07 3.29622 111.777 3.58594C111.488 3.87565 111.323 4.23535 111.284 4.66504H114.409ZM120.728 7.6582C120.422 7.80469 120.13 7.91862 119.854 8C119.58 8.08138 119.289 8.12207 118.979 8.12207C118.586 8.12207 118.224 8.0651 117.896 7.95117C117.567 7.83398 117.285 7.6582 117.051 7.42383C116.813 7.18945 116.629 6.89323 116.499 6.53516C116.369 6.17708 116.304 5.75879 116.304 5.28027C116.304 4.38835 116.548 3.68848 117.036 3.18066C117.528 2.67285 118.175 2.41895 118.979 2.41895C119.292 2.41895 119.598 2.46289 119.897 2.55078C120.2 2.63867 120.477 2.74609 120.728 2.87305V3.89355H120.679C120.399 3.67546 120.109 3.50781 119.81 3.39062C119.513 3.27344 119.224 3.21484 118.94 3.21484C118.42 3.21484 118.008 3.39062 117.705 3.74219C117.406 4.09049 117.256 4.60319 117.256 5.28027C117.256 5.93783 117.402 6.44401 117.695 6.79883C117.992 7.15039 118.407 7.32617 118.94 7.32617C119.126 7.32617 119.315 7.30176 119.507 7.25293C119.699 7.2041 119.871 7.14062 120.024 7.0625C120.158 6.99414 120.283 6.92253 120.4 6.84766C120.518 6.76953 120.61 6.7028 120.679 6.64746H120.728V7.6582ZM124.741 7.95117C124.569 7.99674 124.38 8.03418 124.175 8.06348C123.973 8.09277 123.792 8.10742 123.633 8.10742C123.076 8.10742 122.653 7.95768 122.363 7.6582C122.074 7.35872 121.929 6.87858 121.929 6.21777V3.31738H121.309V2.5459H121.929V0.978516H122.847V2.5459H124.741V3.31738H122.847V5.80273C122.847 6.08919 122.853 6.3138 122.866 6.47656C122.879 6.63607 122.925 6.78581 123.003 6.92578C123.075 7.05599 123.172 7.15202 123.296 7.21387C123.423 7.27246 123.615 7.30176 123.872 7.30176C124.022 7.30176 124.178 7.2806 124.341 7.23828C124.504 7.19271 124.621 7.15527 124.692 7.12598H124.741V7.95117Z" fill="black"/>
</svg>
