<svg width="58" height="15" viewBox="0 0 58 15" fill="none" xmlns="http://www.w3.org/2000/svg">
<path d="M11.0918 2.45996H6.41602V14H4.67578V2.45996H0V0.913086H11.0918V2.45996ZM18.8438 5.98438H18.7559C18.5098 5.92578 18.2695 5.88477 18.0352 5.86133C17.8066 5.83203 17.5342 5.81738 17.2178 5.81738C16.708 5.81738 16.2158 5.93164 15.7412 6.16016C15.2666 6.38281 14.8096 6.67285 14.3701 7.03027V14H12.7178V4.18262H14.3701V5.63281C15.0264 5.10547 15.6035 4.7334 16.1016 4.5166C16.6055 4.29395 17.1182 4.18262 17.6396 4.18262C17.9268 4.18262 18.1348 4.19141 18.2637 4.20898C18.3926 4.2207 18.5859 4.24707 18.8438 4.28809V5.98438ZM28.0283 14H26.3848V12.9541C26.2383 13.0537 26.0391 13.1943 25.7871 13.376C25.541 13.5518 25.3008 13.6924 25.0664 13.7979C24.791 13.9326 24.4746 14.0439 24.1172 14.1318C23.7598 14.2256 23.3408 14.2725 22.8604 14.2725C21.9756 14.2725 21.2256 13.9795 20.6104 13.3936C19.9951 12.8076 19.6875 12.0605 19.6875 11.1523C19.6875 10.4082 19.8457 9.80762 20.1621 9.35059C20.4844 8.8877 20.9414 8.52441 21.5332 8.26074C22.1309 7.99707 22.8486 7.81836 23.6865 7.72461C24.5244 7.63086 25.4238 7.56055 26.3848 7.51367V7.25879C26.3848 6.88379 26.3174 6.57324 26.1826 6.32715C26.0537 6.08105 25.8662 5.8877 25.6201 5.74707C25.3857 5.6123 25.1045 5.52148 24.7764 5.47461C24.4482 5.42773 24.1055 5.4043 23.748 5.4043C23.3145 5.4043 22.8311 5.46289 22.2979 5.58008C21.7646 5.69141 21.2139 5.85547 20.6455 6.07227H20.5576V4.39355C20.8799 4.30566 21.3457 4.20898 21.9551 4.10352C22.5645 3.99805 23.165 3.94531 23.7568 3.94531C24.4482 3.94531 25.0488 4.00391 25.5586 4.12109C26.0742 4.23242 26.5195 4.42578 26.8945 4.70117C27.2637 4.9707 27.5449 5.31934 27.7383 5.74707C27.9316 6.1748 28.0283 6.70508 28.0283 7.33789V14ZM26.3848 11.583V8.84961C25.8809 8.87891 25.2861 8.92285 24.6006 8.98145C23.9209 9.04004 23.3818 9.125 22.9834 9.23633C22.5088 9.37109 22.125 9.58203 21.832 9.86914C21.5391 10.1504 21.3926 10.54 21.3926 11.0381C21.3926 11.6006 21.5625 12.0254 21.9023 12.3125C22.2422 12.5938 22.7607 12.7344 23.458 12.7344C24.0381 12.7344 24.5684 12.623 25.0488 12.4004C25.5293 12.1719 25.9746 11.8994 26.3848 11.583ZM32.9854 2.53906H31.1221V0.825195H32.9854V2.53906ZM32.8799 14H31.2275V4.18262H32.8799V14ZM37.8193 14H36.167V0.324219H37.8193V14ZM49.3066 9.2627H42.0732C42.0732 9.86621 42.1641 10.3936 42.3457 10.8447C42.5273 11.29 42.7764 11.6562 43.0928 11.9434C43.3975 12.2246 43.7578 12.4355 44.1738 12.5762C44.5957 12.7168 45.0586 12.7871 45.5625 12.7871C46.2305 12.7871 46.9014 12.6553 47.5752 12.3916C48.2549 12.1221 48.7383 11.8584 49.0254 11.6006H49.1133V13.4023C48.5566 13.6367 47.9883 13.833 47.4082 13.9912C46.8281 14.1494 46.2188 14.2285 45.5801 14.2285C43.9512 14.2285 42.6797 13.7891 41.7656 12.9102C40.8516 12.0254 40.3945 10.7715 40.3945 9.14844C40.3945 7.54297 40.8311 6.26855 41.7041 5.3252C42.583 4.38184 43.7373 3.91016 45.167 3.91016C46.4912 3.91016 47.5107 4.29688 48.2256 5.07031C48.9463 5.84375 49.3066 6.94238 49.3066 8.36621V9.2627ZM47.6982 7.99707C47.6924 7.12988 47.4727 6.45898 47.0391 5.98438C46.6113 5.50977 45.958 5.27246 45.0791 5.27246C44.1943 5.27246 43.4883 5.5332 42.9609 6.05469C42.4395 6.57617 42.1436 7.22363 42.0732 7.99707H47.6982ZM57.9375 5.98438H57.8496C57.6035 5.92578 57.3633 5.88477 57.1289 5.86133C56.9004 5.83203 56.6279 5.81738 56.3115 5.81738C55.8018 5.81738 55.3096 5.93164 54.835 6.16016C54.3604 6.38281 53.9033 6.67285 53.4639 7.03027V14H51.8115V4.18262H53.4639V5.63281C54.1201 5.10547 54.6973 4.7334 55.1953 4.5166C55.6992 4.29395 56.2119 4.18262 56.7334 4.18262C57.0205 4.18262 57.2285 4.19141 57.3574 4.20898C57.4863 4.2207 57.6797 4.24707 57.9375 4.28809V5.98438Z" fill="black"/>
</svg>
